<?xml version="1.0" encoding="utf-8"?>
<!-- Designed by Vexels.com - 2020 All Rights Reserved - https://vexels.com/terms-and-conditions/  -->
<svg version="1.1" id="Capa_1" xmlns="http://www.w3.org/2000/svg" xmlns:xlink="http://www.w3.org/1999/xlink" x="0px" y="0px"
	 viewBox="0 0 1200 1200" enable-background="new 0 0 1200 1200" xml:space="preserve">
<g>
	<path fill="#E07E50" d="M201.802,557.958c1.522-2.607,3.045-5.214,4.557-7.805c0.291-0.488,0.592-0.994,0.894-1.499
		c1.612-2.663,3.224-5.326,4.825-7.972c0.258-0.523,0.526-1.064,0.794-1.605c1.581-2.56,3.163-5.12,4.735-7.663
		c0.253-0.477,0.516-0.97,0.778-1.464c1.659-2.656,3.318-5.313,4.967-7.951c0.288-0.513,0.585-1.044,0.883-1.575
		c0.897-1.471,1.793-2.942,2.678-4.391c2.094-0.96,2.947-2.699,2.982-4.932c0.908-1.463,1.816-2.927,2.711-4.368
		c3.314-2.864,5.475-6.49,6.766-10.667c0.891-1.442,1.782-2.884,2.662-4.308c0.305-0.478,0.621-0.973,0.936-1.469
		c2.832-4.5,5.664-9,8.484-13.484c0.343-0.498,0.698-1.013,1.052-1.528c0.892-1.459,1.784-2.917,2.662-4.356
		c1.992-1.05,3.073-2.706,3.163-4.99c0.894-1.38,1.788-2.76,2.671-4.123c0.265-0.51,0.541-1.038,0.816-1.565
		c0.922-1.425,1.844-2.849,2.756-4.255c0.312-0.482,0.634-0.983,0.956-1.483c1.589-2.579,3.178-5.158,4.756-7.72
		c0.331-0.503,0.674-1.024,1.016-1.545c0.896-1.402,1.792-2.804,2.678-4.19c0.271-0.511,0.553-1.037,0.836-1.563
		c2.861-4.496,5.721-8.991,8.572-13.469c0.304-0.491,0.617-1.001,0.931-1.511c0.931-1.467,1.862-2.934,2.78-4.381
		c2.081-0.942,3.042-2.67,3.296-4.876c2.065-3.316,4.13-6.632,6.185-9.93c0.31-0.468,0.631-0.954,0.952-1.44
		c0.932-1.429,1.865-2.859,2.786-4.271c0.329-0.451,0.67-0.919,1.01-1.386c3.424-4.596,6.847-9.192,10.256-13.772
		c0.377-0.436,0.769-0.888,1.16-1.339c3.975-4.625,7.95-9.25,11.911-13.859c0.39-0.389,0.793-0.794,1.197-1.199
		c12.107-12.969,23.959-26.188,36.387-38.843c14.829-15.099,30.151-29.715,45.245-44.526c0.349-0.35,0.712-0.714,1.075-1.078
		c4.02-3.421,8.041-6.841,12.048-10.246c0.345-0.346,0.703-0.708,1.061-1.07c3.404-2.816,6.808-5.632,10.196-8.437
		c0.399-0.283,0.813-0.577,1.227-0.871c2.766-2.227,5.533-4.455,8.284-6.669c0.374-0.266,0.764-0.545,1.153-0.824
		c9.032-6.623,18.064-13.246,27.083-19.856c0.335-0.274,0.684-0.56,1.033-0.847c3.423-2.308,6.847-4.616,10.257-6.914
		c0.337-0.241,0.688-0.493,1.039-0.745c5.368-3.422,10.737-6.844,16.083-10.25c1.476-0.906,2.974-1.827,4.472-2.748
		c1.628-0.957,3.256-1.915,4.862-2.856c1.528-0.91,3.078-1.836,4.627-2.762c5.338-2.891,10.677-5.781,15.999-8.662
		c0.398-0.176,0.812-0.361,1.227-0.546c6.556-3.051,13.113-6.102,19.645-9.142c1.556-0.672,3.136-1.355,4.717-2.039
		c2.737-1.199,5.475-2.398,8.198-3.589c0.352-0.182,0.718-0.372,1.084-0.562c2.218-0.945,4.436-1.889,6.629-2.82
		c2.448-0.052,4.736-0.547,6.318-2.695c2.288-0.988,4.576-1.977,6.839-2.953c2.477,0.039,4.777-0.442,6.433-2.547
		c2.837-1.195,5.675-2.39,8.486-3.577c3.941-0.016,7.287-1.654,10.362-3.994c2.861-1.162,5.723-2.325,8.558-3.475
		c2.433,0.202,4.655-0.256,6.294-2.302c9.789-3.56,19.579-7.119,29.342-10.67c1.795-0.241,3.65-0.349,5.432-0.766
		c7.585-1.773,15.083-3.987,22.732-5.395c16.55-3.045,33.152-5.83,49.773-8.469c19.39-3.079,38.823-5.891,58.237-8.818
		c0.11,3.745,0.314,7.49,0.308,11.235c-0.008,5.978,0.305,11.892,2.434,17.565c-2.592,8.578-2.266,17.342-1.666,26.124
		c-1.538,4.732-3.351,9.394-4.563,14.208c-4.134,16.418-9.95,32.199-17.372,47.401c-0.819,1.678-1.673,3.366-2.743,4.886
		c-1.218,1.731-3.098,1.897-5.051,1.495c0.289-1.83,0.579-3.656,0.869-5.482c0.375-1.248,0.75-2.496,1.125-3.744
		c0.006-8.415,0.012-16.831,0.017-25.246c-0.414-1.176-0.828-2.352-1.242-3.528c-4.203-18.108-15.308-30.507-32.043-37.913
		c-10.367-4.588-21.214-7.406-32.746-7.212c-11.26,0.19-22.53,0.107-33.791-0.104c-11.396-0.214-22.363,1.745-33.235,5.083
		c-17.025,5.228-30.886,14.681-41.653,28.915c-10.466,13.835-18.465,29.035-25.196,44.894c-2.911,6.859-5.116,14.136-6.657,21.431
		c-2.997,14.189-1.085,27.966,5.036,41.184c6.767,14.612,17.292,26.037,30.316,35.094c8.26,5.744,17.434,9.854,27.755,10.561
		c3.481,2.56,7.35,2.987,11.461,2.084c6.84-0.72,13.681-1.44,20.521-2.159c0.016,3.953-1.741,7.203-4.119,10.175
		c-5.441,6.8-10.88,13.602-16.38,20.355c-10.606,13.022-21.294,25.977-31.86,39.031c-3.326,4.109-6.365,8.449-9.542,12.679
		c-2.322,3.091-5.184,5.358-9.144,5.926c-1.215-4.028-3.742-7.249-6.788-9.944c-2.282-2.02-4.851-4.088-7.664-5.066
		c-9.63-3.35-19.92,0.758-25.044,9.524c-5.052,8.643-3.358,19.641,3.856,26.612c4.13,3.991,9.129,5.159,14.567,5.361
		c0.258,4.045-1.304,7.375-4.244,10.011c-3.026,2.713-6.061,5.457-9.353,7.825c-17.023,12.242-34.192,24.283-51.185,36.566
		c-9.888,7.147-19.665,14.462-29.262,21.994c-7.198,5.649-12.994,12.755-17.881,20.41c-9.547,14.953-6.019,29.373,3.94,39.471
		c3.425,3.473,7.561,5.54,12.448,5.926c8.486,0.67,16.926,0.666,24.996-2.59c11.609-4.684,23.381-9.023,34.74-14.253
		c17.339-7.983,34.363-16.646,51.569-24.922c5.073-2.44,10.302-4.558,15.469-6.802c5.931-2.576,10.99-1.567,14.999,3.698
		c0.568,0.747,1.14,1.503,1.801,2.164c4.192,4.192,8.066,8.791,12.685,12.45c11.77,9.325,23.688,18.491,35.906,27.218
		c10.482,7.487,21.702,13.751,34.651,16.119c0.922,0.169,1.825,0.444,2.732,0.689c3.662,0.987,6.058,3.311,6.766,7.027
		c0.879,4.607,1.611,9.249,2.199,13.902c0.373,2.952-0.679,5.62-2.862,7.639c-2.062,1.907-4.254,3.697-6.526,5.35
		c-9.873,7.182-19.821,14.261-29.693,21.444c-8.9,6.476-18.391,11.914-28.5,16.237c-10.937,4.677-21.971,9.125-32.912,13.793
		c-10.942,4.668-21.846,9.394-31.674,16.291c-3.563,2.5-7.629,4.284-11.466,6.395c-0.249-5.619-0.206-11.271-0.819-16.85
		c-0.773-7.038-3.997-13.137-8.564-18.497c-12.673-14.872-31.9-18.912-49.319-9.818c-15.16,7.915-26.454,19.954-34.077,35.199
		c-2.35,4.701-3.797,9.959-4.97,15.118c-1.707,7.502-1.398,15.151,2.379,21.987c7.071,12.796,16.489,22.892,32.073,24.871
		c1.968,2.316,5.877,2.592,6.693,6.798c-0.507,1.278-1.007,3.09-1.896,4.685c-3.952,7.083-7.852,14.203-12.08,21.12
		c-5.53,9.047-11.299,17.951-17.066,26.851c-4.018,6.202-9.544,9.452-17.241,9.273c-9.195-0.214-17.857,2.432-26.304,5.97
		c-15.657,6.557-30.178,14.972-43.401,25.636c-2.171,1.75-4.636,3.136-6.965,4.685c-3.154-6.109-6.073-12.348-9.512-18.287
		c-5.743-9.917-13.504-17.96-23.638-23.515c-13.784-7.555-30.454-5.053-41.412,6.178c-5.15,5.278-8.365,11.678-10.199,18.724
		c-1.73,6.648-3.274,13.357-4.574,20.101c-1.446,7.502-0.782,14.865,1.891,22.123c6.812,18.493,18.062,33.399,34.822,43.984
		c-0.031,3.591-1.486,6.642-3.56,9.471c-9.099,12.412-19.876,23.177-31.899,32.752c-5.545,4.417-11.872,6.787-18.801,7.754
		c-12.688,1.771-25.385,3.381-38.204,1.281c-1.56-0.454-3.119-0.907-4.679-1.36c-2.621-1.542-5.094-3.46-7.89-4.556
		c-8.606-3.373-17.467-5.947-26.645-7.299c-2.743-1.487-5.445-3.058-8.236-4.448c-15.412-7.674-31.051-14.886-45.691-24.061
		c-6.726-4.216-10.266-9.672-10.181-17.702c0.069-6.566-0.333-13.142-0.665-19.706c-0.916-18.125-1.975-36.242-2.834-54.37
		c-0.445-9.379-0.521-18.774-0.884-28.157c-0.29-7.5-1.243-15.006-1.055-22.487c0.416-16.576,1.298-33.142,2.158-49.703
		c0.144-2.767,1.128-5.491,1.725-8.235c2.107,0.611,4.222,1.195,6.319,1.837c8.912,2.728,17.836,2.832,26.919,0.677
		c10.917-2.59,20.431-7.812,29.142-14.679c9.882-7.791,18.451-16.88,26.826-26.259c25.726-28.808,44.414-61.23,53.162-99.146
		c2.506-10.863,3.429-21.748,2.044-32.644c-1.757-13.824-8.825-24.612-21.255-31.462c-10.543-5.811-21.906-7.32-33.702-5.828
		c-4.655,0.589-9.243,1.703-13.861,2.579C201.579,560.357,201.69,559.157,201.802,557.958z M396.982,687.723
		c16.121,0.037,33.441-9.083,40.707-20.782c8.721-14.04,8.958-28.456,0.024-42.522c-8.314-13.09-23.652-19.129-39.269-16.011
		c-11.194,2.235-20.54,7.739-27.676,16.536c-10.197,12.57-12.355,26.561-5.214,41.269
		C372.334,680.177,384.281,686.639,396.982,687.723z M447.381,432.465c21.659,1.062,38.342-17.952,38.689-36.643
		c0.388-20.863-16.331-38.29-36.488-38.805c-22.501-0.575-38.914,16.535-39.487,36.634
		C409.518,413.93,425.093,432.241,447.381,432.465z M374.009,421.047c-0.029-14.451-9.619-23.943-23.974-24.442
		c-14.419-0.501-25.142,11.587-24.861,24.767c0.293,13.702,10.751,24.036,24.683,24.118
		C363.539,445.57,374.037,434.947,374.009,421.047z M196.316,863.549c-16.502,0.181-28.984,19.057-22.674,34.29
		c3.687,8.901,11.827,14.077,21.474,13.656c12.15-0.53,22.729-11.037,23.812-23.649C220.086,874.38,209.868,863.401,196.316,863.549
		z M335.441,673.792c-0.026-11.475-8.684-20.463-19.839-20.595c-11.229-0.132-20.213,8.725-20.313,20.025
		c-0.103,11.743,8.169,20.268,19.734,20.334C326.632,693.623,335.466,685.071,335.441,673.792z"/>
	<path fill="#6C3015" d="M992.775,51.088c8.608-0.994,16.87,0.729,24.912,3.505c17.933,6.19,34.182,15.484,48.947,27.345
		c2.148,1.725,3.761,4.115,5.618,6.199c-3.075,0.521-6.204,0.822-9.21,1.597c-12.527,3.229-20.339,14.343-19.323,27.261
		c0.904,11.487,12.938,21.292,24.316,19.423c10.014-1.645,17.233-7.162,20.326-17.066c1.292-4.133,1.727-8.534,2.551-12.813
		c13,9.637,21.299,21.703,20.057,38.717c-0.59,8.083-1.002,16.182-1.759,24.249c-1.339,14.27-2.713,28.542-4.434,42.769
		c-0.554,4.584-2.241,9.031-3.406,13.539c-3.028-0.747-6.166-1.205-9.073-2.284c-18.717-6.946-36.478-4.201-53.1,5.89
		c-13.262,8.05-24.088,18.884-32.384,32.115c-5.525,8.812-9.325,18.284-12.425,28.237c-6.31,20.259-6.807,40.668-2.734,61.226
		c1.941,9.798,4.959,19.36,10.203,28.106c4.075,6.795,9.269,12.539,14.781,18.131c11.126,11.287,24.174,18.665,40.077,20.629
		c1.847,0.228,3.641,0.895,5.459,1.358c-0.422,4.346-0.445,8.775-1.331,13.024c-4.6,22.059-9.287,44.102-14.199,66.094
		c-6.096,27.29-14.931,53.661-27.54,78.68c-7.909,15.693-17.479,30.367-27.793,44.574c-17.286,23.81-34.457,47.698-53.185,70.429
		c-15.162,18.403-31.944,35.24-49.095,51.733c-1.978,1.903-4.621,3.115-6.958,4.647c-7.103-3.212-14.07-6.774-21.34-9.543
		c-8.164-3.109-16.64-5.388-24.909-8.233c-12.746-4.385-25.747-7.608-39.141-9.198c0.967-1.181,1.833-2.467,2.916-3.532
		c9.271-9.121,18.814-17.98,27.797-27.374c5.755-6.018,10.704-12.807,16.014-19.251c10.34-10.033,19.482-21.062,27.461-33.055
		c2.934-2.822,5.82-5.695,8.811-8.454c6.211-5.731,8.471-12.829,8.081-21.162c-0.414-8.846-2.145-17.432-4.679-25.828
		c-7.1-23.53-10.462-47.696-12.54-72.07c-2.101-24.648-4.412-49.292-4.119-74.08c0.044-3.748-0.744-7.514-0.598-11.251
		c0.341-8.746,0.438-17.564,1.705-26.196c1.444-9.836,7.791-16.312,17.237-19.195c11.612-3.543,23.44,2.297,28.717,13.729
		c2.675,5.796,3.562,11.995,3.799,18.288c0.694,18.461,1.231,36.928,1.976,55.386c0.834,20.659,2.351,41.267,5.442,61.729
		c0.354,2.344-0.197,5.838,2.902,6.263c3.842,0.528,3.899-3.356,4.658-5.859c3.65-12.042,6.039-24.282,6.046-36.956
		c0.006-11.893-0.513-23.847,1.698-35.622c1.79-9.534,3.913-19.005,5.92-28.498c4.992-23.604,10.531-47.067,17.374-70.22
		c4.088-13.832,7.036-27.945,8.792-42.274c2.144-17.493,6.465-34.405,12.345-51.027c9.309-26.314,20.565-51.814,31.428-77.486
		c5.126-12.114,9.969-24.352,14.728-36.616c1.83-4.717,0.149-7.428-4.881-7.742c-9.693-0.604-19.417-0.899-29.054,0.856
		c-14.993,2.731-28.532,9.259-42.012,15.991c-11.988,5.987-21.817,14.358-30.258,24.799c-7.266,8.988-15.272,17.427-23.446,25.614
		c-5.959,5.968-12.863,10.98-19.088,16.698c-5.717,5.252-12.128,8.814-19.851,9.897c-5.266-1.316-10.532-2.633-15.799-3.949
		c-2.074-2.334-4.049-4.765-6.24-6.983c-7.068-7.155-7.475-22.831,0.641-30.862c2.214-2.191,4.679-4.125,6.938-6.272
		c3.841-3.652,7.895-7.133,11.347-11.128c6.119-7.079,11.853-14.49,17.749-21.761c1.05-0.622,2.099-1.244,3.149-1.866
		c8.583,8.698,19.627,10.745,31.061,10.62c15.469-0.168,29.288-5.769,41.784-14.706c17.205-12.304,29.776-28.318,38.373-47.609
		c5.673-12.731,6.976-25.831,4.325-39.408C994.553,59.019,993.631,55.06,992.775,51.088z M934.551,546.715
		c-0.872,15.174,11.339,23.522,22.432,23.665c11.867,0.153,25.94-8.315,25.856-24.158c-0.069-12.917-10.902-23.4-24.184-23.53
		C944.099,522.549,934.71,531.906,934.551,546.715z"/>
	<path fill="#6C3015" d="M660.221,903.026c-1.677,2.243-3.258,4.567-5.062,6.703c-1.407,1.668-3.058,3.137-4.656,4.636
		c-21.285,19.974-40.039,42.242-58.37,64.857c-7.082,8.738-13.809,17.858-19.787,27.376c-12.638,20.123-29.555,35.446-49.986,47.243
		c-7.043,4.066-13.886,8.498-20.652,13.014c-4.418,2.949-8.885,5.982-12.71,9.628c-7.792,7.43-16.702,13.124-26.003,18.359
		c-16.638,9.365-33.028,19.192-49.881,28.151c-21.404,11.378-44.131,19.415-68.025,23.705c-9.218,1.655-18.625,2.383-27.979,3.11
		c-6.247,0.486-12.551,0.22-18.339-2.819c1.604-4.192,1.57-8.463,0.624-12.779c-2.378-10.853-3.252-22.02-7.143-32.57
		c-1.045-2.834-0.989-6.073-1.434-9.128c3.788-0.74,7.571-1.479,11.354-2.218c1.945-0.231,3.89-0.463,5.835-0.694
		c1.187-0.419,2.374-0.838,3.561-1.256c1.336-0.184,2.671-0.368,4.007-0.551c6.295-0.076,12.046-1.789,17.081-5.663
		c2.896-0.656,5.793-1.312,8.689-1.968c-0.387,6.54-0.995,13.077-1.101,19.622c-0.116,7.144,2.672,13.36,7.003,18.978
		c5.801,7.525,13.672,11.592,22.584,14.218c11.127,3.278,31.324-5.862,36.664-12.697c16.765-21.455,8.729-54.299-21.408-61.069
		c-3.344-0.751-6.795-1.023-10.197-1.517c1.962-2.787,3.78-5.692,5.926-8.329c2.363-2.905,5.169-5.449,7.539-8.349
		c11.287-13.812,23.325-26.925,35.935-39.542c4.181-4.183,8.047-8.759,11.542-13.532c5.537-7.56,10.696-15.401,15.867-23.221
		c0.729-1.102,0.622-2.756,0.854-3.915c-3.319-2.381-6.542-1.824-9.614-1.931c-5.624-0.195-11.303,0.176-16.867-0.472
		c-6.17-0.719-12.466-1.653-18.297-3.676c-9.997-3.468-15.549-13.549-14.135-23.869c1.308-9.553,9.499-17.494,19.534-18.71
		c3.091-0.375,6.241-0.355,9.364-0.361c11.883-0.023,23.779,0.386,35.644-0.065c13.105-0.498,26.224-1.383,39.255-2.832
		c8.347-0.928,16.546-3.182,24.812-4.84c0.763,0.239,1.524,0.476,2.285,0.713c4.166,16.112,18.613,28.978,34.842,31.028
		c14.933,1.886,32.673-7.538,38.478-21.147c5.276-12.37,5.393-24.806-1.967-36.667c0.641-0.985,1.281-1.97,1.922-2.955
		c2.448-1.34,5.07-2.439,7.315-4.059c12.824-9.255,25.729-18.415,37.515-29.014c0.724,0.198,1.448,0.396,2.171,0.593
		c0.352,6.181,0.138,12.458,1.175,18.521c2.094,12.25,5.993,24.062,10.361,35.685C657.195,899.009,658.907,900.942,660.221,903.026z
		 M548.629,968.492c-0.148-9.709-3.744-16.676-11.041-21.595c-6.3-4.247-18.265-4.265-24.143,0.029
		c-5.217,3.812-8.824,8.882-10.529,15.154c-2.639,9.708,1.491,20.905,9.703,26.61c7.604,5.283,18.49,4.8,26.323-1.47
		C545.169,982.234,547.856,975.335,548.629,968.492z"/>
	<path fill="#C93F1A" d="M201.467,561.556c4.618-0.875,9.207-1.99,13.861-2.579c11.795-1.491,23.158,0.018,33.702,5.828
		c12.43,6.85,19.498,17.639,21.255,31.462c1.385,10.896,0.462,21.781-2.044,32.644c-8.748,37.916-27.436,70.337-53.162,99.146
		c-8.375,9.379-16.944,18.468-26.826,26.259c-8.711,6.868-18.225,12.09-29.142,14.679c-9.082,2.154-18.006,2.051-26.919-0.677
		c-2.097-0.642-4.212-1.226-6.321-1.834c-0.113-1.02-0.224-2.043-0.333-3.066c0.991-3.943,2.009-7.879,2.96-11.831
		c0.732-3.038,1.739-6.067,1.992-9.152c0.524-6.393-0.019-12.591-5.89-16.827c0.269-3.681,0.538-7.362,0.806-11.043
		c0.564-1.691,1.128-3.381,1.69-5.07c2.701-2.797,3.513-6.326,3.869-10.031c0.64-1.641,1.28-3.281,1.918-4.921
		c3.65-5.402,6.204-11.256,7.271-17.72c0.748-1.634,1.496-3.269,2.242-4.901c2.185-2.319,3.566-4.974,3.417-8.262
		c2.578-5.388,5.155-10.776,7.731-16.162c2.369-2.169,3.706-4.848,3.96-8.058c0.537-1.086,1.073-2.172,1.607-3.256
		c0.72-1.423,1.443-2.849,2.165-4.275c1.156-2.318,2.313-4.636,3.467-6.953c0.743-1.421,1.488-2.844,2.232-4.267
		c2.914-5.517,5.828-11.034,8.739-16.549c2.654-1.951,4.07-4.612,4.481-7.847c1.699-2.981,3.398-5.961,5.096-8.941
		c0.78-1.433,1.562-2.867,2.344-4.301c3.561-6.196,7.121-12.392,10.679-18.584C199.363,563.501,200.415,562.529,201.467,561.556z"/>
	<path fill="#601908" d="M660.221,903.025c-1.314-2.083-3.027-4.016-3.875-6.274c-4.368-11.623-8.267-23.435-10.361-35.685
		c-1.037-6.064-0.823-12.341-1.174-18.523c6.487-5.396,12.787-11.034,19.496-16.135c14.682-11.162,29.484-22.172,44.394-33.027
		c26.825-19.529,52.063-40.982,76.86-62.973c2.543-2.255,4.556-5.108,6.815-7.683c1.436-0.433,2.872-0.866,4.308-1.298
		c13.394,1.593,26.395,4.816,39.141,9.201c8.269,2.845,16.745,5.124,24.909,8.233c7.27,2.769,14.237,6.331,21.34,9.543
		c-1.952,2.402-3.631,5.109-5.903,7.158c-18.396,16.584-38.013,31.612-58.955,44.834c-29.099,18.371-58.311,36.565-87.562,54.695
		c-20.505,12.71-40.28,26.431-59.225,41.368C667.267,898.952,663.636,900.851,660.221,903.025z"/>
	<path fill="#601908" d="M1062.175,419.223c-1.818-0.463-3.612-1.13-5.459-1.358c-15.904-1.964-28.951-9.342-40.077-20.629
		c-5.512-5.592-10.706-11.336-14.781-18.131c-5.245-8.746-8.262-18.307-10.203-28.106c-4.073-20.557-3.577-40.966,2.734-61.226
		c3.1-9.953,6.9-19.425,12.425-28.237c8.296-13.231,19.122-24.065,32.384-32.115c16.622-10.09,34.384-12.836,53.1-5.89
		c2.907,1.079,6.045,1.537,9.073,2.284c-0.444,3.389-0.691,6.814-1.354,10.157c-5.52,27.856-11.11,55.697-16.691,83.54
		c-2.698,13.463-5.439,26.918-8.129,40.383c-3.302,16.526-6.506,33.072-9.907,49.577
		C1064.606,412.795,1063.232,415.976,1062.175,419.223z"/>
	<path fill="#601908" d="M290.813,1092.513c0.449,3.053,0.393,6.293,1.438,9.127c3.891,10.55,4.765,21.717,7.143,32.57
		c0.946,4.316,0.98,8.588-0.624,12.779c-2.042-0.105-4.084-0.21-6.12-0.314c-1.778-0.416-3.562-0.834-5.345-1.253
		c-4.491-0.596-8.982-1.192-13.464-1.78c-1.181-0.668-2.37-1.344-3.559-2.02c-1.953-0.196-3.907-0.391-5.854-0.584
		c-1.063-0.46-2.134-0.922-3.204-1.384c-1.422-0.135-2.844-0.27-4.26-0.404c-1.531-0.124-3.067-0.248-4.603-0.373
		c-1.617-0.304-3.233-0.609-4.842-0.904c-0.891-0.307-1.791-0.623-2.69-0.939c-2.247-0.319-4.493-0.639-6.732-0.95
		c-1.138-0.657-2.285-1.323-3.431-1.989c-10.638-0.754-19.753-5.889-28.992-10.419c-26.948-13.213-49.027-32.411-67.407-55.969
		c-4.621-5.923-9.101-11.981-13.256-18.235c-2.22-3.342-3.609-7.236-5.37-10.885c3.074-7.824,9.839-12.575,15.339-18.366
		c3.248-3.42,7.149-5.893,11.764-7.117c3.649,2.207,5.485,5.917,7.601,9.347c9.436,15.292,21.516,28.302,34.92,40.1
		c7.504,6.604,15.638,12.452,24.609,16.968c2.752,1.385,5.74,2.829,8.729,3.116c7.837,0.753,15.269,2.904,22.809,4.955
		c5.966,1.622,12.265,2.176,18.458,2.759c4.959,0.467,9.995,0.063,14.97,0.422C282.852,1091.06,286.824,1091.911,290.813,1092.513z"
		/>
	<path fill="#601908" d="M992.775,51.088c0.856,3.972,1.778,7.931,2.556,11.918c2.651,13.578,1.348,26.677-4.325,39.408
		c-8.597,19.291-21.168,35.305-38.373,47.609c-12.497,8.937-26.316,14.538-41.784,14.706c-11.434,0.124-22.477-1.922-31.059-10.62
		c1.425-2.062,2.729-4.219,4.293-6.169c5.576-6.952,9.288-14.835,11.95-23.273c4.249-13.471,9.111-26.675,16.508-38.82
		c1.289-2.115,2.024-4.567,3.015-6.863c1.237-2.031,2.473-4.062,3.71-6.093c9.04-3.764,18.081-7.528,27.112-11.286
		c0.791-0.603,1.591-1.212,2.391-1.822c10.799-4.986,22.051-8.336,33.927-9.502C986.121,49.946,989.509,49.633,992.775,51.088z"/>
	<path fill="#6C3015" d="M146.745,1013.101c-4.616,1.226-8.517,3.7-11.765,7.119c-5.499,5.791-12.264,10.542-15.339,18.366
		c-2.277-3.328-4.945-6.46-6.763-10.025c-13.838-27.139-20.782-56.117-22.62-86.413c-0.359-5.923-0.715-11.847-1.063-17.77
		c-0.11-1.87-0.385-3.756-0.252-5.611c1.27-17.752,2.378-35.519,3.999-53.24c1.479-16.166,3.514-32.281,5.349-48.414
		c0.563-4.95,0.864-9.995,3.897-14.282c-0.148,2.806-0.083,5.645-0.496,8.412c-0.617,4.132,0.543,7.369,3.869,9.906
		c1.24,0.946,2.339,2.082,3.471,3.163c5.94,5.673,7.765,12.682,6.51,20.602c-0.341,2.153-0.99,4.271-1.652,6.356
		c-2.199,6.928-3.255,14.009-3.231,21.278c0.037,10.962-0.168,21.927,0.056,32.883c0.096,4.667,0.675,9.387,1.614,13.964
		c5.442,26.532,14.629,51.791,26.554,76.063c2.334,4.751,5.306,9.189,7.982,13.773
		C146.824,1010.523,146.784,1011.812,146.745,1013.101z"/>
	<path fill="#B75B32" d="M146.867,1009.229c-2.678-4.582-5.65-9.02-7.984-13.771c-11.925-24.272-21.112-49.53-26.554-76.063
		c-0.939-4.577-1.518-9.297-1.614-13.964c-0.224-10.957-0.02-21.922-0.056-32.883c-0.024-7.269,1.032-14.35,3.231-21.278
		c0.662-2.085,1.311-4.203,1.652-6.356c1.255-7.92-0.57-14.928-6.51-20.602c-1.132-1.081-2.231-2.218-3.471-3.163
		c-3.327-2.537-4.486-5.774-3.869-9.906c0.413-2.767,0.347-5.606,0.496-8.412c0.184-1.546,0.367-3.093,0.549-4.627
		c3.061-6.611,4.679-13.542,4.467-20.866c0.351-1.555,0.702-3.111,1.048-4.656c0.464-1.667,0.933-3.344,1.402-5.021
		c0.354-1.715,0.708-3.429,1.059-5.132c1.171-1.502,2.344-3.016,3.518-4.529c3.323,2.734,6.926,4.887,11.306,5.419
		c0.111,1.023,0.223,2.045,0.335,3.065c-0.594,2.741-1.579,5.465-1.723,8.233c-0.86,16.561-1.743,33.127-2.158,49.703
		c-0.188,7.482,0.765,14.987,1.055,22.487c0.363,9.383,0.44,18.778,0.884,28.157c0.859,18.127,1.918,36.245,2.834,54.37
		c0.332,6.564,0.734,13.14,0.665,19.706c-0.085,8.031,3.455,13.486,10.181,17.702c14.64,9.175,30.279,16.387,45.691,24.061
		c2.791,1.39,5.493,2.961,8.236,4.446c-0.027,0.835-0.053,1.672-0.079,2.51c-13.642-0.272-26.584,2.199-38.42,9.415
		C151.248,1008.364,148.936,1008.599,146.867,1009.229z"/>
	<path fill="#601908" d="M1090.913,106.541c-0.824,4.279-1.26,8.68-2.551,12.813c-3.094,9.904-10.313,15.421-20.326,17.066
		c-11.378,1.869-23.412-7.936-24.316-19.423c-1.016-12.919,6.796-24.032,19.323-27.261c3.006-0.775,6.134-1.076,9.21-1.597
		C1080.499,92.22,1087.311,97.754,1090.913,106.541z"/>
	<path fill="#6C3015" d="M919.265,72.891c-1.237,2.031-2.474,4.062-3.709,6.093c-4.35,1.618-8.879,2.876-13.02,4.919
		c-15.901,7.845-31.777,15.72-48.241,22.357c-2.853,1.15-5.446,2.945-8.159,4.441c-3.352,0.628-6.806,0.93-10.039,1.941
		c-15.188,4.748-30.174,10.218-46.118,12.084c-0.585,0.068-1.128,0.503-1.691,0.767c-19.414,2.928-38.847,5.739-58.237,8.818
		c-16.621,2.64-33.222,5.424-49.773,8.469c-7.649,1.407-15.148,3.622-22.732,5.395c-1.782,0.416-3.637,0.525-5.432,0.766
		c2.09-2.755,5.39-3.041,8.287-3.997c16.727-5.514,34.086-8.096,51.396-10.907c25.337-4.114,50.884-6.816,76.07-12.004
		c24.947-5.139,49.206-12.368,72.485-22.611c16.038-7.057,31.695-14.977,47.54-22.476C911.541,75.218,914.962,72.803,919.265,72.891
		z"/>
	<path fill="#6C3015" d="M114.23,758c-1.174,1.514-2.348,3.028-3.518,4.529c0.299-2.728,0.232-5.546,0.955-8.144
		c3.058-10.98,6.232-21.933,9.648-32.806c0.792-2.52,2.7-4.689,4.094-7.017c-0.27,3.684-0.539,7.365-0.803,11.046
		c-0.908,1.594-2.175,3.085-2.675,4.8C119.258,739.575,116.777,748.797,114.23,758z"/>
	<path fill="#6C3015" d="M107.202,777.338c0.213,7.323-1.405,14.255-4.467,20.866C102.158,790.798,103.529,783.822,107.202,777.338z
		"/>
	<path fill="#6C3015" d="M140.155,676.824c-1.066,6.464-3.62,12.318-7.27,17.72C132.813,687.613,135.248,681.712,140.155,676.824z"
		/>
	<path fill="#6C3015" d="M239.373,496.067c-1.291,4.177-3.452,7.802-6.766,10.667C233.206,502.109,235.246,498.427,239.373,496.067z
		"/>
	<path fill="#6C3015" d="M607.92,165.388c-3.075,2.34-6.421,3.978-10.362,3.994C600.367,166.328,603.894,165.212,607.92,165.388z"/>
	<path fill="#6C3015" d="M622.772,159.61c-1.639,2.047-3.861,2.504-6.294,2.302C618.133,159.879,620.266,159.235,622.772,159.61z"/>
	<path fill="#6C3015" d="M130.967,699.465c-0.356,3.705-1.168,7.233-3.869,10.031C126.707,705.503,127.67,702.034,130.967,699.465z"
		/>
	<path fill="#6C3015" d="M575.8,178.459c-1.582,2.147-3.87,2.643-6.318,2.695C571.005,178.839,573.216,178.212,575.8,178.459z"/>
	<path fill="#6C3015" d="M589.073,172.96c-1.656,2.105-3.957,2.586-6.433,2.547C584.254,173.268,586.456,172.59,589.073,172.96z"/>
	<path fill="#6C3015" d="M180.196,596.295c-0.411,3.234-1.827,5.895-4.481,7.847C175.742,600.688,177.089,597.989,180.196,596.295z"
		/>
	<path fill="#6C3015" d="M511.985,208.514c-1.55,0.926-3.099,1.852-4.627,2.762C508.107,208.991,509.747,208.25,511.985,208.514z"/>
	<path fill="#6C3015" d="M502.495,214.132c-1.498,0.921-2.996,1.842-4.472,2.748C498.658,214.536,500.345,213.956,502.495,214.132z"
		/>
	<path fill="#6C3015" d="M201.467,561.556c-1.052,0.973-2.104,1.946-3.153,2.914c0.055-2.782,0.683-5.253,3.497-6.53
		C201.69,559.157,201.579,560.357,201.467,561.556z"/>
	<path fill="#6C3015" d="M229.895,511.102c-0.035,2.233-0.888,3.973-2.982,4.932C226.765,513.68,227.569,511.931,229.895,511.102z"
		/>
	<path fill="#6C3015" d="M290.396,415.252c-0.253,2.206-1.215,3.934-3.296,4.876C286.962,417.648,287.876,415.908,290.396,415.252z"
		/>
	<path fill="#6C3015" d="M258.332,465.933c-0.09,2.284-1.171,3.94-3.163,4.99C255.06,468.503,255.866,466.692,258.332,465.933z"/>
	<path fill="#6C3015" d="M553.572,188.125c-1.58,0.683-3.161,1.366-4.717,2.039C549.803,187.997,551.464,187.542,553.572,188.125z"
		/>
	<path fill="#6C3015" d="M157.505,639.442c-0.255,3.21-1.592,5.889-3.96,8.058C153.245,644.016,154.485,641.292,157.505,639.442z"/>
	<path fill="#6C3015" d="M145.814,663.661c0.15,3.288-1.232,5.943-3.417,8.262C141.834,668.464,143.071,665.752,145.814,663.661z"/>
	<path fill="#6C3015" d="M109.653,767.662c-0.469,1.677-0.938,3.354-1.402,5.021C107.692,770.715,108.126,769.036,109.653,767.662z"
		/>
	<path fill="#6C3015" d="M470.645,234.787c-0.349,0.287-0.698,0.573-1.033,0.847c0.013-0.013,0.217-0.806,0.217-0.806
		S470.645,234.787,470.645,234.787z"/>
	<path fill="#6C3015" d="M218.385,529.951c-0.262,0.494-0.525,0.987-0.778,1.464C217.872,530.915,218.129,530.433,218.385,529.951z"
		/>
	<path fill="#6C3015" d="M242.971,490.29c-0.315,0.496-0.631,0.991-0.936,1.469C242.354,491.257,242.663,490.773,242.971,490.29z"/>
	<path fill="#6C3015" d="M252.507,475.278c-0.355,0.515-0.709,1.03-1.052,1.528C251.814,476.286,252.16,475.782,252.507,475.278z"/>
	<path fill="#6C3015" d="M187.636,583.054c-0.782,1.434-1.564,2.868-2.344,4.301C185.27,585.482,185.986,584.014,187.636,583.054z"
		/>
	<path fill="#6C3015" d="M442.529,255.49c-0.389,0.279-0.779,0.558-1.153,0.824c0.015-0.013,0.304-0.805,0.304-0.805L442.529,255.49
		z"/>
	<path fill="#6C3015" d="M433.091,262.984c-0.414,0.294-0.828,0.589-1.227,0.871C432.284,263.557,432.687,263.27,433.091,262.984z"
		/>
	<path fill="#6C3015" d="M421.668,272.292c-0.358,0.362-0.717,0.724-1.061,1.07C420.97,272.995,421.319,272.644,421.668,272.292z"/>
	<path fill="#6C3015" d="M408.559,283.608c-0.363,0.364-0.726,0.728-1.075,1.078C407.852,284.318,408.205,283.963,408.559,283.608z"
		/>
	<path fill="#6C3015" d="M261.82,460.245c-0.275,0.528-0.551,1.055-0.816,1.565C261.282,461.276,261.551,460.761,261.82,460.245z"/>
	<path fill="#6C3015" d="M481.94,227.129c-0.351,0.252-0.701,0.503-1.039,0.745c0.014-0.01,0.246-0.761,0.246-0.761L481.94,227.129z
		"/>
	<path fill="#6C3015" d="M529.21,199.306c-0.414,0.185-0.829,0.37-1.227,0.546c0.017-0.009,0.432-0.705,0.432-0.705
		S529.21,199.306,529.21,199.306z"/>
	<path fill="#6C3015" d="M265.532,454.506c-0.322,0.501-0.644,1.001-0.956,1.483C264.902,455.483,265.217,454.995,265.532,454.506z"
		/>
	<path fill="#6C3015" d="M166.976,620.691c-0.745,1.423-1.49,2.846-2.232,4.267C164.625,623.083,165.414,621.686,166.976,620.691z"
		/>
	<path fill="#6C3015" d="M224.236,520.425c-0.298,0.531-0.595,1.062-0.883,1.575C223.654,521.463,223.945,520.944,224.236,520.425z"
		/>
	<path fill="#6C3015" d="M301.328,398.225c-0.34,0.468-0.681,0.935-1.01,1.386C300.662,399.137,300.995,398.681,301.328,398.225z"/>
	<path fill="#6C3015" d="M948.768,59.784c-0.8,0.609-1.6,1.219-2.391,1.822C947.181,60.994,947.974,60.389,948.768,59.784z"/>
	<path fill="#6C3015" d="M297.532,403.882c-0.321,0.486-0.642,0.973-0.952,1.44C296.904,404.829,297.218,404.355,297.532,403.882z"
		/>
	<path fill="#6C3015" d="M284.32,424.509c-0.314,0.51-0.627,1.02-0.931,1.511C283.706,425.504,284.013,425.007,284.32,424.509z"/>
	<path fill="#6C3015" d="M312.744,383.113c-0.391,0.451-0.782,0.903-1.16,1.339C311.98,383.996,312.362,383.555,312.744,383.113z"/>
	<path fill="#6C3015" d="M562.853,183.974c-0.366,0.19-0.732,0.38-1.084,0.562c0.014-0.008,0.338-0.701,0.338-0.701L562.853,183.974
		z"/>
	<path fill="#6C3015" d="M271.304,445.242c-0.342,0.521-0.684,1.042-1.016,1.545C270.634,446.26,270.969,445.751,271.304,445.242z"
		/>
	<path fill="#6C3015" d="M161.277,631.911c-0.722,1.426-1.445,2.851-2.165,4.275C158.962,634.318,159.702,632.903,161.277,631.911z"
		/>
	<path fill="#6C3015" d="M274.817,439.489c-0.282,0.526-0.564,1.053-0.836,1.563C274.268,440.52,274.542,440.005,274.817,439.489z"
		/>
	<path fill="#6C3015" d="M325.852,368.055c-0.403,0.405-0.807,0.809-1.197,1.199C325.063,368.844,325.458,368.449,325.852,368.055z"
		/>
	<path fill="#6C3015" d="M207.253,548.654c-0.301,0.506-0.603,1.011-0.894,1.499C206.664,549.643,206.958,549.148,207.253,548.654z"
		/>
	<path fill="#6C3015" d="M212.872,539.078c-0.268,0.541-0.536,1.081-0.794,1.605C212.35,540.136,212.611,539.607,212.872,539.078z"
		/>
	<path fill="#B75B32" d="M788.288,125.493c0.563-0.264,1.105-0.699,1.691-0.767c15.944-1.866,30.931-7.336,46.118-12.084
		c3.233-1.011,6.687-1.312,10.039-1.939c0.737,2.384,1.196,4.899,2.259,7.126c5.421,11.362,12.335,21.693,21.428,30.511
		c2.443,2.369,4.554,5.081,6.817,7.635c-5.896,7.272-11.63,14.682-17.749,21.761c-3.453,3.995-7.506,7.476-11.347,11.128
		c-2.259,2.147-4.724,4.082-6.938,6.272c-8.116,8.031-7.709,23.707-0.641,30.862c2.191,2.218,4.166,4.649,6.223,6.981
		c-2.851,1.282-5.789,2.377-8.497,3.885c-7.008,3.901-11.055,9.934-11.835,17.926c-1.224,12.55,7.552,22.535,19.882,23.45
		c12.322,0.915,23.841-9.05,23.054-21.297c-0.304-4.736-0.827-9.234-3.463-13.344c-1.333-2.079-2.23-4.437-3.324-6.669
		c7.724-1.083,14.134-4.645,19.851-9.897c6.225-5.718,13.13-10.73,19.088-16.698c8.174-8.187,16.18-16.627,23.446-25.614
		c8.441-10.441,18.27-18.813,30.258-24.799c13.48-6.732,27.019-13.26,42.012-15.991c9.638-1.756,19.362-1.46,29.054-0.856
		c5.03,0.313,6.711,3.025,4.881,7.742c-4.758,12.264-9.602,24.501-14.728,36.616c-10.863,25.673-22.119,51.172-31.428,77.486
		c-5.88,16.622-10.201,33.534-12.345,51.027c-1.756,14.329-4.704,28.443-8.792,42.274c-6.843,23.153-12.381,46.616-17.374,70.22
		c-2.007,9.492-4.13,18.964-5.92,28.498c-2.211,11.775-1.692,23.728-1.698,35.622c-0.007,12.674-2.395,24.914-6.046,36.956
		c-0.759,2.503-0.815,6.387-4.658,5.859c-3.099-0.425-2.547-3.919-2.902-6.263c-3.091-20.461-4.608-41.07-5.442-61.729
		c-0.745-18.459-1.282-36.925-1.976-55.386c-0.237-6.293-1.124-12.492-3.799-18.288c-5.277-11.433-17.105-17.273-28.717-13.729
		c-9.446,2.883-15.794,9.358-17.237,19.195c-1.267,8.632-1.364,17.449-1.705,26.196c-0.146,3.736,0.642,7.503,0.598,11.251
		c-0.293,24.789,2.018,49.433,4.119,74.08c2.078,24.374,5.44,48.541,12.54,72.07c2.534,8.396,4.264,16.982,4.679,25.828
		c0.391,8.333-1.869,15.431-8.081,21.162c-2.991,2.76-5.877,5.632-8.813,8.449c-2.398-2.87-4.641-5.882-7.227-8.564
		c-3.158-3.276-7.257-4.745-11.758-5.223c-9.354-0.995-17.193,1.633-23.444,8.97c-7.508,8.812-6.845,22.938,2.149,30.204
		c3.836,3.099,8.522,5.148,12.821,7.673c-5.31,6.443-10.259,13.232-16.014,19.251c-8.983,9.394-18.526,18.254-27.797,27.374
		c-1.083,1.065-1.949,2.351-2.916,3.532c-1.436,0.43-2.872,0.863-4.311,1.295c-8.77-1.103-17.489-0.774-26.17,0.838
		c-24.681,4.583-48.786,10.907-71.718,21.508c-22.226,10.274-37.878,26.206-45.34,49.661c-1.887,5.931-3.34,12.096-4.108,18.264
		c-1.197,9.603-1.637,19.3-2.398,28.958c-11.786,10.599-24.691,19.759-37.515,29.014c-2.245,1.62-4.867,2.719-7.314,4.055
		c-2.531-2.281-5.023-4.607-7.607-6.825c-3.767-3.233-7.23-7.043-11.477-9.452c-12.247-6.946-25.414-7.767-37.467-0.554
		c-14.079,8.425-21.491,21.357-19.819,38.428c0.243,2.48,0.538,4.955,0.808,7.433c-8.265,1.659-16.464,3.913-24.811,4.841
		c-13.031,1.449-26.15,2.334-39.255,2.832c-11.865,0.451-23.762,0.042-35.644,0.065c-3.123,0.006-6.273-0.014-9.364,0.361
		c-10.035,1.216-18.226,9.157-19.534,18.71c-1.414,10.32,4.138,20.401,14.135,23.869c5.831,2.023,12.128,2.957,18.297,3.676
		c5.565,0.648,11.243,0.277,16.867,0.472c3.072,0.107,6.295-0.451,9.614,1.931c-0.232,1.159-0.125,2.813-0.854,3.915
		c-5.171,7.82-10.33,15.661-15.867,23.221c-3.495,4.773-7.361,9.349-11.542,13.532c-12.611,12.616-24.648,25.729-35.935,39.542
		c-2.37,2.9-5.176,5.444-7.539,8.349c-2.146,2.638-3.963,5.542-5.922,8.331c-1.402,0.387-2.808,0.771-4.214,1.156
		c-12.987,1.654-21.82,9.362-28.811,19.754c-0.233,0.498-0.408,1.016-0.525,1.554c-2.896,0.656-5.793,1.312-8.686,1.962
		c-6.106,0.642-11.923,2.168-17.084,5.669c-1.336,0.184-2.671,0.367-4.002,0.552c-1.185,0.419-2.375,0.838-3.566,1.256
		c-1.945,0.232-3.89,0.463-5.83,0.695c-1.831-0.377-3.669-1.087-5.502-1.073c-6.584,0.05-10.126-3.28-12.529-9.258
		c-10.222-25.424-25.704-47.142-46.729-64.844c-2.377-2.001-4.452-4.36-6.668-6.553c12.819,2.1,25.515,0.49,38.204-1.281
		c6.929-0.967,13.255-3.338,18.801-7.754c12.023-9.575,22.8-20.34,31.899-32.752c2.074-2.829,3.529-5.88,3.558-9.473
		c1.252-0.032,2.505-0.063,3.759-0.093c10.693,7.56,25.605,7.107,35.598-1.26c6.66-5.576,11.155-12.535,13.003-21.164
		c2.516-11.742,2.361-23.602,1.791-35.477c-0.103-2.139-0.979-4.241-1.497-6.361c-0.01-1.65-0.02-3.299-0.03-4.949
		c2.329-1.554,4.794-2.939,6.965-4.69c13.222-10.664,27.743-19.079,43.401-25.636c8.447-3.537,17.109-6.184,26.304-5.97
		c7.697,0.179,13.223-3.071,17.241-9.273c5.767-8.9,11.536-17.803,17.066-26.851c4.228-6.918,8.128-14.038,12.08-21.12
		c0.89-1.595,1.389-3.407,1.896-4.685c-0.816-4.206-4.724-4.483-6.695-6.802c4.956-0.235,9.915-0.465,14.873-0.696
		c3.348-0.559,6.965-0.49,9.997-1.788c12.635-5.405,22.653-14.037,29.531-26.005c3.095-5.386,5.797-11.021,6.01-17.453
		c0.963-2.021,1.926-4.043,2.889-6.064c3.837-2.111,7.903-3.895,11.466-6.395c9.828-6.897,20.732-11.623,31.674-16.291
		c10.941-4.668,21.975-9.116,32.912-13.793c10.109-4.323,19.6-9.762,28.5-16.237c9.873-7.183,19.82-14.262,29.693-21.444
		c2.272-1.653,4.464-3.442,6.526-5.35c2.183-2.019,3.235-4.688,2.862-7.639c-0.588-4.653-1.32-9.295-2.199-13.902
		c-0.708-3.716-3.104-6.04-6.766-7.027c-0.907-0.244-1.81-0.52-2.732-0.689c-12.949-2.368-24.169-8.632-34.651-16.119
		c-12.218-8.727-24.135-17.893-35.906-27.218c-4.618-3.659-8.493-8.258-12.685-12.45c-0.661-0.661-1.233-1.417-1.801-2.164
		c-4.009-5.265-9.067-6.274-14.999-3.698c-5.167,2.244-10.396,4.362-15.469,6.802c-17.206,8.276-34.23,16.939-51.569,24.922
		c-11.359,5.23-23.131,9.569-34.74,14.253c-8.07,3.256-16.51,3.26-24.996,2.59c-4.887-0.386-9.023-2.453-12.448-5.926
		c-9.959-10.097-13.487-24.518-3.94-39.471c4.887-7.655,10.684-14.761,17.881-20.41c9.597-7.532,19.374-14.847,29.262-21.994
		c16.994-12.283,34.162-24.324,51.185-36.566c3.292-2.368,6.327-5.112,9.353-7.825c2.94-2.636,4.502-5.966,4.243-10.015
		c1.852-0.255,3.72-0.426,5.555-0.772c9.211-1.736,14.72-7.915,15.358-17.303c0.19-2.793,0.115-5.605,0.161-8.408
		c3.96-0.568,6.822-2.835,9.144-5.926c3.177-4.23,6.217-8.57,9.542-12.679c10.566-13.054,21.254-26.01,31.86-39.031
		c5.5-6.753,10.94-13.554,16.38-20.355c2.378-2.973,4.135-6.222,4.119-10.179c1.998-0.85,3.997-1.697,5.996-2.544
		c3.626-0.814,7.548-1.009,10.82-2.567c7.859-3.74,15.67-7.71,23.039-12.323c16.748-10.483,30.974-24.009,44.442-38.345
		c3.861-4.11,7.292-8.547,8.549-14.251c5.826-4.332,8.19-10.749,10.486-17.24c1.966-5.555,4.082-11.057,6.131-16.583
		c1.953,0.399,3.833,0.232,5.051-1.498c1.07-1.52,1.924-3.209,2.743-4.886c7.422-15.201,13.238-30.983,17.372-47.401
		c1.212-4.814,3.025-9.476,4.563-14.208c3.758,3.274,7.198,7.039,11.343,9.71c7.067,4.553,15.037,4.796,22.441,1.183
		c17.958-8.766,17.147-32.593,5.266-41.747c-2.401-1.85-5.345-3.53-8.265-4.073c-8.855-1.645-17.488-1.368-24.557,5.538
		c-1.322,1.291-3.031,2.187-4.562,3.265c-2.128-5.673-2.442-11.588-2.434-17.565C788.602,132.983,788.399,129.238,788.288,125.493z
		 M657.962,572.279c-0.229,7.491,0.913,14.591,4.121,21.169c9.192,18.849,24.885,26.805,45.462,23.019
		c8.237-1.516,15.098-5.838,21.297-11.309c12.672-11.184,22.112-24.676,28.278-40.365c4.812-12.244,6.072-24.895,2.566-37.726
		c-4.351-15.922-17.994-26.424-34.387-27.056c-11.134-0.429-20.934,3.155-29.931,9.303c-15.751,10.761-26.315,25.656-33.655,42.991
		C659.003,558.705,657.735,565.47,657.962,572.279z M792.55,332.738c-21.789-0.037-38.378,16.518-38.287,37.915
		c0.072,16.783,15.643,37.51,38.437,37.366c21.738-0.138,38.128-19.479,37.727-37.882
		C830.023,351.606,816.265,332.452,792.55,332.738z M738.636,423.44c0.876-11.15-11.204-24.326-24.939-24.164
		c-13.298,0.156-23.721,11.218-23.702,25.117c0.023,17.181,13.531,24.316,24.211,24.455
		C728.025,449.027,738.669,437.876,738.636,423.44z"/>
	<path fill="#C93F1A" d="M656.168,349.718c-1.999,0.847-3.998,1.693-5.996,2.544c-6.84,0.724-13.68,1.443-20.517,2.168
		c-3.436-2.784-7.415-2.635-11.465-2.089c-10.321-0.707-19.495-4.816-27.755-10.561c-13.024-9.058-23.548-20.482-30.316-35.094
		c-6.122-13.218-8.033-26.995-5.036-41.184c1.541-7.295,3.746-14.572,6.657-21.431c6.731-15.859,14.73-31.059,25.196-44.894
		c10.767-14.233,24.628-23.687,41.653-28.915c10.872-3.338,21.839-5.297,33.235-5.083c11.261,0.211,22.531,0.294,33.791,0.104
		c11.532-0.195,22.378,2.624,32.746,7.212c16.736,7.406,27.841,19.805,32.038,37.91c0.412,1.175,0.83,2.353,1.248,3.531
		c-0.006,8.415-0.012,16.831-0.017,25.24c-0.375,1.246-0.75,2.498-1.125,3.75c-0.29,1.826-0.579,3.653-0.869,5.482
		c-2.049,5.529-4.165,11.031-6.131,16.586c-2.297,6.491-4.661,12.908-10.49,17.239c-7.326,3.439-14.675,6.826-21.966,10.331
		c-23.41,11.255-43.102,27.156-59.033,47.652C659.746,343.134,658.101,346.539,656.168,349.718z"/>
	<path fill="#A12E0F" d="M230.75,1008.567c2.216,2.193,4.291,4.551,6.668,6.553c21.025,17.702,36.507,39.42,46.729,64.844
		c2.403,5.978,5.945,9.308,12.529,9.258c1.833-0.014,3.671,0.696,5.502,1.073c-3.788,0.739-7.571,1.478-11.359,2.218
		c-3.994-0.601-7.966-1.452-11.978-1.742c-4.975-0.359-10.011,0.045-14.97-0.422c-6.193-0.583-12.492-1.137-18.458-2.759
		c-7.54-2.051-14.972-4.201-22.809-4.955c-2.989-0.287-5.977-1.731-8.729-3.116c-8.971-4.516-17.106-10.364-24.609-16.968
		c-13.404-11.798-25.484-24.808-34.92-40.1c-2.116-3.43-3.952-7.14-7.601-9.347c0.041-1.291,0.08-2.581,0.121-3.872
		c2.071-0.633,4.383-0.867,6.171-1.958c11.836-7.215,24.778-9.687,38.42-9.41c3.254,0.902,6.503,1.816,9.763,2.692
		c8.281,2.226,16.568,4.435,24.852,6.651C227.63,1007.66,229.19,1008.113,230.75,1008.567z"/>
	<path fill="#C93F1A" d="M557.393,730.97c-0.963,2.021-1.926,4.043-2.889,6.064c-1.9,1.067-4.09,1.818-5.656,3.252
		c-9.458,8.658-19.04,17.209-28.026,26.342c-4.552,4.627-7.941,10.398-11.856,15.652c-4.958,0.231-9.917,0.462-14.873,0.696
		c-15.582-1.975-25-12.07-32.071-24.867c-3.777-6.836-4.086-14.485-2.379-21.987c1.174-5.159,2.62-10.417,4.97-15.118
		c7.623-15.245,18.917-27.285,34.077-35.199c17.419-9.094,36.646-5.055,49.319,9.818c4.567,5.36,7.791,11.46,8.564,18.497
		C557.187,719.7,557.144,725.351,557.393,730.97z"/>
	<path fill="#C93F1A" d="M326.97,957.213c-1.254,0.03-2.507,0.06-3.759,0.093c-16.758-10.583-28.008-25.489-34.82-43.982
		c-2.673-7.258-3.338-14.621-1.891-22.123c1.3-6.745,2.844-13.453,4.574-20.101c1.834-7.046,5.049-13.447,10.199-18.724
		c10.958-11.231,27.628-13.733,41.412-6.178c10.134,5.554,17.895,13.597,23.638,23.515c3.439,5.939,6.358,12.179,9.512,18.287
		c0.011,1.654,0.021,3.303,0.031,4.954c-3.598,1.512-6.012,4.355-8.199,7.405C354.088,919.3,340.533,938.259,326.97,957.213z"/>
	<path fill="#C93F1A" d="M396.982,687.723c-12.702-1.084-24.648-7.546-31.428-21.511c-7.141-14.708-4.983-28.698,5.214-41.269
		c7.137-8.797,16.483-14.301,27.676-16.536c15.617-3.118,30.956,2.921,39.269,16.011c8.934,14.066,8.696,28.482-0.024,42.522
		C430.424,678.64,413.103,687.76,396.982,687.723z"/>
	<path fill="#C93F1A" d="M447.381,432.465c-22.288-0.224-37.863-18.535-37.285-38.814c0.572-20.099,16.986-37.209,39.487-36.634
		c20.156,0.515,36.876,17.941,36.488,38.805C485.723,414.513,469.04,433.527,447.381,432.465z"/>
	<path fill="#C93F1A" d="M374.009,421.047c0.028,13.9-10.469,24.523-24.152,24.443c-13.932-0.082-24.39-10.416-24.683-24.118
		c-0.281-13.18,10.442-25.268,24.861-24.767C364.39,397.104,373.98,406.596,374.009,421.047z"/>
	<path fill="#A12E0F" d="M791.03,154.293c1.531-1.078,3.24-1.974,4.562-3.265c7.069-6.906,15.702-7.183,24.557-5.538
		c2.92,0.543,5.864,2.223,8.265,4.073c11.881,9.154,12.692,32.981-5.266,41.747c-7.403,3.614-15.374,3.371-22.441-1.183
		c-4.146-2.671-7.586-6.436-11.343-9.71C788.764,171.635,788.438,162.871,791.03,154.293z"/>
	<path fill="#C93F1A" d="M196.316,863.549c13.552-0.149,23.77,10.83,22.613,24.297c-1.084,12.613-11.663,23.119-23.812,23.649
		c-9.648,0.421-17.787-4.755-21.474-13.656C167.332,882.607,179.814,863.73,196.316,863.549z"/>
	<path fill="#C93F1A" d="M579.126,440.432c-0.047,2.803,0.029,5.615-0.161,8.408c-0.639,9.388-6.148,15.567-15.358,17.303
		c-1.835,0.346-3.703,0.517-5.555,0.772c-5.437-0.198-10.436-1.366-14.566-5.358c-7.214-6.971-8.907-17.969-3.856-26.612
		c5.123-8.766,15.413-12.874,25.044-9.524c2.813,0.979,5.383,3.047,7.664,5.066C575.384,433.183,577.912,436.404,579.126,440.432z"
		/>
	<path fill="#C93F1A" d="M335.441,673.792c0.025,11.28-8.809,19.832-20.418,19.765c-11.564-0.066-19.837-8.591-19.734-20.334
		c0.099-11.3,9.084-20.158,20.313-20.025C326.757,653.328,335.415,662.317,335.441,673.792z"/>
	<path fill="#C93F1A" d="M226.071,1007.207c-8.284-2.216-16.57-4.424-24.852-6.651c-3.26-0.876-6.509-1.791-9.763-2.692
		c0.026-0.842,0.052-1.68,0.079-2.515c9.178,1.355,18.039,3.928,26.646,7.302C220.977,1003.746,223.45,1005.664,226.071,1007.207z"
		/>
	<path fill="#B75B32" d="M618.19,352.341c4.05-0.545,8.029-0.694,11.465,2.089C625.54,355.328,621.671,354.902,618.19,352.341z"/>
	<path fill="#B75B32" d="M760.504,242.925c0.375-1.252,0.75-2.504,1.125-3.75C761.254,240.429,760.879,241.677,760.504,242.925z"/>
	<path fill="#B75B32" d="M761.646,213.935c-0.418-1.178-0.836-2.356-1.248-3.531C760.819,211.583,761.232,212.759,761.646,213.935z"
		/>
	<path fill="#A12E0F" d="M876.639,155.975c-2.263-2.554-4.374-5.266-6.817-7.635c-9.093-8.817-16.007-19.148-21.428-30.511
		c-1.063-2.227-1.521-4.742-2.259-7.126c2.713-1.498,5.306-3.293,8.159-4.443c16.463-6.636,32.34-14.511,48.241-22.357
		c4.141-2.043,8.67-3.301,13.021-4.919c-0.992,2.296-1.727,4.748-3.016,6.863c-7.398,12.145-12.259,25.35-16.508,38.82
		c-2.662,8.439-6.373,16.321-11.95,23.273c-1.564,1.949-2.868,4.107-4.293,6.169C878.738,154.731,877.689,155.353,876.639,155.975z"
		/>
	<path fill="#601908" d="M934.551,546.715c0.159-14.809,9.548-24.166,24.104-24.024c13.282,0.13,24.115,10.613,24.184,23.53
		c0.085,15.843-13.989,24.311-25.856,24.158C945.89,570.237,933.679,561.889,934.551,546.715z"/>
	<path fill="#A12E0F" d="M862.002,236.931c1.094,2.232,1.991,4.59,3.324,6.669c2.636,4.111,3.158,8.608,3.463,13.344
		c0.787,12.247-10.732,22.212-23.054,21.297c-12.329-0.915-21.106-10.9-19.882-23.45c0.78-7.993,4.827-14.026,11.835-17.926
		c2.709-1.508,5.647-2.603,8.497-3.885C851.47,234.298,856.736,235.615,862.002,236.931z"/>
	<path fill="#A12E0F" d="M843.411,671.271c-4.3-2.526-8.985-4.574-12.821-7.673c-8.994-7.266-9.657-21.392-2.149-30.204
		c6.251-7.337,14.09-9.965,23.444-8.97c4.501,0.479,8.6,1.947,11.758,5.223c2.586,2.682,4.829,5.694,7.227,8.564
		C862.893,650.21,853.751,661.238,843.411,671.271z"/>
	<path fill="#A12E0F" d="M642.638,841.952c0.761-9.657,1.201-19.355,2.398-28.958c0.768-6.167,2.221-12.333,4.108-18.264
		c7.462-23.455,23.114-39.387,45.34-49.661c22.932-10.601,47.037-16.925,71.718-21.508c8.681-1.612,17.4-1.941,26.17-0.838
		c-2.255,2.577-4.268,5.429-6.811,7.684c-24.797,21.991-50.035,43.444-76.86,62.973c-14.911,10.855-29.713,21.865-44.394,33.027
		c-6.709,5.101-13.01,10.739-19.496,16.135C644.086,842.347,643.362,842.149,642.638,841.952z"/>
	<path fill="#601908" d="M341.345,1080.161c0.117-0.537,0.292-1.055,0.523-1.55c7.698-2.064,14.102-6.571,20.545-10.975
		c3.379-2.31,6.386-5.033,8.267-8.783c1.406-0.385,2.812-0.769,4.214-1.156c3.398,0.492,6.849,0.764,10.193,1.515
		c30.137,6.77,38.173,39.614,21.408,61.069c-5.34,6.834-25.537,15.974-36.664,12.697c-8.912-2.625-16.783-6.693-22.584-14.218
		c-4.331-5.618-7.119-11.835-7.003-18.978C340.35,1093.238,340.958,1086.701,341.345,1080.161z"/>
	<path fill="#601908" d="M595.887,877.979c7.361,11.861,7.243,24.297,1.967,36.667c-5.804,13.609-23.545,23.034-38.478,21.147
		c-16.229-2.05-30.677-14.916-34.842-31.031c21.641-4.904,42.231-12.635,61.924-22.833
		C589.474,880.367,592.738,879.284,595.887,877.979z"/>
	<path fill="#A12E0F" d="M595.887,877.979c-3.149,1.305-6.413,2.388-9.428,3.95c-19.693,10.199-40.283,17.93-61.924,22.833
		c-0.761-0.235-1.522-0.472-2.285-0.711c-0.272-2.479-0.567-4.954-0.81-7.434c-1.671-17.071,5.74-30.003,19.819-38.428
		c12.053-7.213,25.22-6.392,37.467,0.554c4.248,2.409,7.71,6.219,11.477,9.452c2.584,2.218,5.076,4.543,7.607,6.825
		C597.168,876.01,596.528,876.994,595.887,877.979z"/>
	<path fill="#601908" d="M548.629,968.492c-0.773,6.843-3.46,13.742-9.688,18.728c-7.832,6.27-18.718,6.753-26.323,1.47
		c-8.212-5.705-12.342-16.902-9.703-26.61c1.705-6.272,5.313-11.343,10.529-15.154c5.878-4.294,17.842-4.277,24.143-0.029
		C544.885,951.816,548.481,958.783,548.629,968.492z"/>
	<path fill="#A12E0F" d="M315.575,1087.792c5.16-3.502,10.978-5.027,17.084-5.669
		C327.622,1086.003,321.87,1087.716,315.575,1087.792z"/>
	<path fill="#A12E0F" d="M308.007,1089.599c1.19-0.418,2.38-0.837,3.566-1.256C310.381,1088.762,309.194,1089.18,308.007,1089.599z"
		/>
	<path fill="#A12E0F" d="M114.23,758c2.547-9.203,5.029-18.425,7.701-27.591c0.5-1.715,1.767-3.206,2.675-4.8
		c5.866,4.236,6.409,10.435,5.885,16.827c-0.253,3.085-1.261,6.114-1.992,9.152c-0.952,3.952-1.969,7.887-2.96,11.831
		C121.156,762.887,117.553,760.734,114.23,758z"/>
	<path fill="#A12E0F" d="M657.962,572.279c-0.227-6.809,1.041-13.574,3.75-19.972c7.34-17.335,17.905-32.23,33.655-42.991
		c8.998-6.148,18.797-9.732,29.931-9.303c16.394,0.632,30.037,11.134,34.387,27.056c3.506,12.83,2.246,25.482-2.566,37.726
		c-6.167,15.689-15.607,29.18-28.278,40.365c-6.198,5.471-13.06,9.793-21.297,11.309c-20.577,3.786-36.271-4.17-45.462-23.019
		C658.876,586.871,657.733,579.77,657.962,572.279z"/>
	<path fill="#A12E0F" d="M792.55,332.738c23.715-0.286,37.473,18.868,37.876,37.399c0.401,18.403-15.989,37.744-37.727,37.882
		c-22.794,0.144-38.365-20.583-38.437-37.366C754.172,349.256,770.762,332.701,792.55,332.738z"/>
	<path fill="#A12E0F" d="M738.636,423.44c0.032,14.437-10.611,25.587-24.43,25.408c-10.68-0.139-24.188-7.274-24.211-24.455
		c-0.018-13.899,10.404-24.961,23.702-25.117C727.432,399.114,739.512,412.29,738.636,423.44z"/>
	<path fill="#A12E0F" d="M326.97,957.213c13.562-18.954,27.117-37.913,40.696-56.855c2.187-3.051,4.601-5.893,8.199-7.405
		c0.519,2.118,1.395,4.22,1.497,6.359c0.57,11.875,0.725,23.735-1.791,35.477c-1.849,8.629-6.343,15.588-13.003,21.164
		C352.575,964.32,337.663,964.773,326.97,957.213z"/>
	<path fill="#A12E0F" d="M656.168,349.718c1.934-3.18,3.578-6.584,5.847-9.504c15.931-20.496,35.623-36.397,59.033-47.652
		c7.291-3.505,14.64-6.892,21.966-10.331c-1.253,5.705-4.684,10.143-8.545,14.252c-13.468,14.336-27.694,27.861-44.442,38.345
		c-7.369,4.613-15.18,8.583-23.039,12.323C663.715,348.709,659.794,348.904,656.168,349.718z"/>
	<path fill="#A12E0F" d="M508.966,782.28c3.915-5.254,7.304-11.025,11.856-15.652c8.986-9.133,18.568-17.684,28.026-26.342
		c1.566-1.433,3.755-2.185,5.656-3.252c-0.213,6.432-2.915,12.067-6.01,17.453c-6.878,11.968-16.896,20.6-29.531,26.005
		C515.931,781.789,512.314,781.72,508.966,782.28z"/>
	<path fill="#A12E0F" d="M370.681,1058.853c-1.881,3.75-4.888,6.473-8.267,8.783c-6.444,4.404-12.847,8.91-20.545,10.975
		C348.861,1068.215,357.694,1060.507,370.681,1058.853z"/>
</g>
</svg>
