<?xml version="1.0" encoding="utf-8"?>
<!-- Designed by Vexels.com - 2020 All Rights Reserved - https://vexels.com/terms-and-conditions/  -->
<svg version="1.1" id="Capa_1" xmlns="http://www.w3.org/2000/svg" xmlns:xlink="http://www.w3.org/1999/xlink" x="0px" y="0px"
	 viewBox="0 0 1200 1200" enable-background="new 0 0 1200 1200" xml:space="preserve">
<g>
	<path fill="none" d="M551.444,276.917c3.691,3.863,7.398,7.71,11.07,11.591c-3.672-3.881-7.379-7.729-11.07-11.593
		c-1.055-0.117-2.109-0.236-3.16-0.356C549.335,276.678,550.39,276.798,551.444,276.917z"/>
	<path fill="none" d="M526.044,1086.345c4.769-0.83,9.51-3.057,13.718-6.821c-0.002,0-0.004,0-0.005,0
		C535.551,1083.287,530.811,1085.514,526.044,1086.345z"/>
	<path fill="none" d="M658.236,1052.248c-5.573,0.892-11.14,1.826-16.721,2.666C647.097,1054.074,652.663,1053.139,658.236,1052.248
		L658.236,1052.248c1.075-2.088,2.084-4.215,3.188-6.286C660.32,1048.033,659.311,1050.16,658.236,1052.248z"/>
	<path fill="none" d="M453.473,158.233c-7.135,1.912-14.042,4.699-21.309,6.105c7.266-1.406,14.174-4.193,21.306-6.102
		C453.471,158.234,453.472,158.234,453.473,158.233z"/>
	<path fill="none" d="M761.217,782.514c-1.831,0.619-3.66,1.243-5.479,1.894C757.557,783.758,759.386,783.133,761.217,782.514z"/>
	<path fill="none" d="M829.755,660.121c-0.164-0.593-0.32-1.188-0.468-1.784C829.436,658.933,829.591,659.528,829.755,660.121z"/>
	<path fill="none" d="M935.197,943.81c-0.122-0.715-0.243-1.43-0.365-2.146c0,0,0,0,0,0
		C934.954,942.379,935.076,943.094,935.197,943.81z"/>
	<path fill="none" d="M148.209,603.216c0,0-0.104-0.103-0.208-0.205C148.105,603.113,148.209,603.216,148.209,603.216
		L148.209,603.216z"/>
	<path fill="none" d="M951.505,378.307c1.778,0.11,3.557,0.201,5.336,0.3c0,0,0,0,0,0
		C955.062,378.508,953.283,378.417,951.505,378.307z"/>
	<path fill="none" d="M146.458,605.015L146.458,605.015c0.584-0.599,1.168-1.199,1.752-1.799
		C147.625,603.816,147.041,604.415,146.458,605.015z"/>
	<path fill="none" d="M144.659,608.56l-0.308-0.255C144.484,608.415,144.659,608.56,144.659,608.56
		c0.6-1.182,1.199-2.363,1.799-3.545C145.858,606.196,145.259,607.378,144.659,608.56z"/>
	<path fill="none" d="M147.793,602.805c0,0,0.104,0.103,0.208,0.206C147.897,602.908,147.793,602.805,147.793,602.805z"/>
	<path fill="none" d="M1010.207,440.847c0.746-1.106,1.474-2.226,2.233-3.32c0,0,0,0,0,0c-3.167-10.203-6.477-20.365-9.471-30.618
		c2.995,10.256,6.305,20.419,9.47,30.618C1011.681,438.621,1010.953,439.741,1010.207,440.847z"/>
	<path fill="none" d="M321.253,239.365L321.253,239.365c2.49-2.735,4.932-5.518,7.403-8.272
		C326.185,233.847,323.743,236.629,321.253,239.365z"/>
	<path fill="none" d="M1039.536,582.463L1039.536,582.463c-2.522-1.417-4.684-3.231-6.663-5.232
		C1034.852,579.232,1037.014,581.046,1039.536,582.463z"/>
	<path fill="none" d="M963.718,326.617L963.718,326.617c0,0,0.098,0,0.21-0.002L963.718,326.617z"/>
	<path fill="none" d="M979.677,721.659c1.109-3.411,2.164-6.842,3.269-10.255c0,0,0,0,0,0
		C981.841,714.816,980.786,718.247,979.677,721.659z"/>
	<path fill="none" d="M901.776,269.477c4.038,0.004,7.673-1.26,11.117-3.137c-3.444,1.877-7.079,3.141-11.12,3.137
		c-0.189,0.6-0.38,1.201-0.572,1.801C901.393,270.677,901.585,270.077,901.776,269.477z"/>
	<path fill="none" d="M321.339,239.25c-0.001,0.001-0.028,0.038-0.053,0.072C321.311,239.288,321.339,239.249,321.339,239.25
		C321.339,239.25,321.339,239.25,321.339,239.25z"/>
	<path fill="none" d="M495.543,1057.956c0.001,0,0.002,0,0.003,0c0.086-2.951,0.016-5.92,0.291-8.857
		C495.563,1052.035,495.632,1055.003,495.543,1057.956z"/>
	<path fill="none" d="M523.178,281.366c8.5-0.766,16.922-2.08,25.106-4.808c0,0,0,0,0,0
		C540.098,279.286,531.677,280.6,523.178,281.366z"/>
	<path fill="none" d="M301.415,262.744c4.488-5.229,8.754-10.658,12.747-16.33c0,0,0,0,0,0
		C310.168,252.087,305.903,257.515,301.415,262.744z"/>
	<path fill="none" d="M963.836,306.465c-0.008,1.379-0.016,2.758-0.024,4.137C963.82,309.224,963.828,307.843,963.836,306.465
		C963.836,306.465,963.836,306.465,963.836,306.465z"/>
	<path fill="none" d="M1015.368,444.67c-0.545-2.334-0.941-4.724-1.487-7.058c5.488-2.864,10.816-6.029,16.731-7.946
		c-5.915,1.917-11.244,5.081-16.732,7.942C1014.428,439.945,1014.823,442.336,1015.368,444.67z"/>
	<path fill="none" d="M859.9,267.384c-1.244-0.438-2.482-0.901-3.715-1.386C857.418,266.484,858.656,266.946,859.9,267.384z"/>
	<path fill="none" d="M828.189,647.585C828.189,647.584,828.189,647.584,828.189,647.585c-0.223,2.563-0.026,5.061,0.406,7.519
		C828.164,652.646,827.966,650.147,828.189,647.585z"/>
	<path fill="none" d="M813.517,638.387c3.467,1.721,7.128,3.084,10.681,4.645c0.872,0.995,1.744,1.99,2.617,2.984
		c-0.872-0.995-1.745-1.99-2.617-2.986C820.644,641.47,816.984,640.107,813.517,638.387z"/>
	<path fill="none" d="M963.619,292.229c0,0.001,0,0.002,0,0.002c0.149-0.344,0.296-0.682,0.442-1.019
		C963.914,291.551,963.766,291.89,963.619,292.229z"/>
	<path fill="none" d="M867.428,269.707c-1.266-0.334-2.527-0.696-3.781-1.084C864.902,269.011,866.162,269.373,867.428,269.707z"/>
	<path fill="none" d="M778.321,762.646c0.918-0.865,1.914-1.671,2.963-2.434C780.235,760.975,779.239,761.78,778.321,762.646z"/>
	<path fill="none" d="M743.771,415.675L743.771,415.675c0.656,0.096,1.314,0.192,1.973,0.288
		C745.086,415.867,744.428,415.771,743.771,415.675z"/>
	<path fill="none" d="M712.613,333.27L712.613,333.27c-1.43-5.057-3.136-10.002-5.041-14.863
		C709.478,323.269,711.184,328.213,712.613,333.27z"/>
	<path fill="none" d="M689.851,177.299c-1.268,1.221-2.255,2.732-3.372,4.109c-1.533,0.217-3.067,0.433-4.6,0.65
		c-4.611-4.189-9.36-8.239-13.803-12.599c4.444,4.36,9.192,8.41,13.802,12.6c1.535-0.217,3.068-0.434,4.605-0.648
		C687.596,180.031,688.583,178.52,689.851,177.299z"/>
	<path fill="none" d="M676.51,310.647c0.604,3.929,2.193,7.671,5.227,11.038c0.305,0.677,0.611,1.355,0.916,2.032
		c-0.305-0.678-0.611-1.356-0.916-2.035C678.703,318.316,677.114,314.576,676.51,310.647z"/>
	<path fill="none" d="M680.017,333.52c0.598-2.807,1.498-5.479,3.622-7.615c-0.001-0.001-0.001-0.002-0.002-0.003
		C681.515,328.041,680.614,330.713,680.017,333.52z"/>
	<path fill="none" d="M834.127,765.673c0.514,0.006,1.029,0.021,1.544,0.041C835.156,765.693,834.641,765.679,834.127,765.673z"/>
	<path fill="none" d="M686.765,1022.817c-4.058,2.158-8.125,4.3-12.179,6.464c1.426-2.587,2.471-5.5,4.352-7.697
		c-1.881,2.197-2.926,5.11-4.353,7.695c-2.827,1.398-5.655,2.795-8.482,4.193c2.827-1.398,5.655-2.795,8.483-4.191
		C678.64,1027.117,682.707,1024.975,686.765,1022.817z"/>
	<path fill="none" d="M906.331,966.774c-15.276,6.488-28.353,16.183-40.685,26.937C877.978,982.957,891.055,973.262,906.331,966.774
		c0.173-1.988,0.274-3.988,0.475-5.972C906.605,962.787,906.504,964.786,906.331,966.774z"/>
	<path fill="none" d="M731.793,1085.355c-0.026,0.128-0.05,0.255-0.076,0.382c0.026-0.128,0.051-0.256,0.077-0.385
		c-3.761-0.355-7-1.837-9.98-3.992C724.794,1083.516,728.033,1084.998,731.793,1085.355z"/>
	<path fill="none" d="M906.671,307.32c-1.597-12.044-3.633-24.03-5.47-36.043l0,0C903.038,283.29,905.074,295.276,906.671,307.32z"
		/>
	<path fill="none" d="M882.93,272.292c-4.616-0.309-9.145-1.033-13.598-2.105C873.786,271.259,878.314,271.984,882.93,272.292z"/>
	<path fill="none" d="M888.915,272.455c-2.012,0.026-4.006-0.03-5.985-0.162C884.908,272.425,886.903,272.481,888.915,272.455z"/>
	<path fill="none" d="M844.759,865.904c-6.282,11.102-12.483,22.251-18.717,33.38c0.001,0,0.002,0,0.003,0.001
		C832.276,888.156,838.477,877.007,844.759,865.904z"/>
	<path fill="none" d="M485.69,1058.044C485.69,1058.044,485.691,1058.044,485.69,1058.044c-0.373-2.87-0.788-5.736-1.145-8.608
		C484.902,1052.308,485.317,1055.174,485.69,1058.044z"/>
	<path fill="#E07E50" d="M228.881,948.51c2.505-7.375,6.138-14.146,10.847-20.347c13.778-18.143,32.071-24.62,54.226-20.752
		c10.388,1.813,19.836,6.18,28.634,11.863c5.982,3.864,11.836,7.952,17.532,12.227c8.954,6.72,18.86,11.156,29.785,13.476
		c6.971,1.481,13.961,2.928,20.842,4.766c10.319,2.757,20.698,5.414,30.789,8.878c24.132,8.285,40.558,25.053,51.238,47.878
		c5.966,12.751,9.938,26.044,11.437,40.063c0.103,0.959,0.215,1.917,0.334,2.874c0.357,2.872,0.772,5.737,1.146,8.608
		c3.284-0.028,6.566-0.056,9.852-0.088c0.089-2.953,0.02-5.922,0.294-8.857c1.644-17.595,18.504-27.797,35.006-21.24
		c12.285,4.882,20.066,18.265,18.349,32.293c-0.495,4.044-1.992,7.995-3.29,11.902c-0.833,2.506-2.142,4.854-3.238,7.273
		c5.603,3.383,11.568,3.827,17.983,2.951c12.04-1.644,24.044-3.346,35.814-6.477c2.834-0.754,5.82-0.936,8.736-1.381
		c2.782-2.231,5.656-4.358,8.33-6.712c8.055-7.089,17.426-11.207,27.988-12.795c5.581-0.839,11.148-1.774,16.721-2.666
		c1.075-2.088,2.084-4.215,3.188-6.286c0.368-0.69,0.747-1.375,1.141-2.049c1.908-3.259,3.235-6.663,3.537-10.44
		c-9.38,3.921-19.067,6.566-29.234,7.505c-10.219,0.944-20.203-0.097-29.906-3.293c-18.489-6.091-30.775-18.692-37.166-36.877
		c-1.949-5.545-3.366-11.523-3.641-17.368c-1.635-34.716,8.581-65.098,34.508-89.136c15.501-14.372,33.344-24.714,54.215-29.4
		c10.449-2.346,20.897-4.44,31.638-5.053c4.701-0.268,9.428-1.241,13.996-2.45c19.578-5.181,39.339-5.86,59.206-2.408
		c6.102,1.06,12.168,2.812,17.972,4.988c10.011,3.754,17.898,10.466,23.904,19.295c5.657,8.317,14.349,13.158,21.887,19.319
		c0.623,0.51,1.693,0.474,2.559,0.69c6.234-11.129,12.435-22.278,18.717-33.38c3.149-5.565,4.727-11.455,4.564-17.876
		c-0.315-12.394,2.684-24.141,7.416-35.48c3.773-9.04,7.63-18.049,11.675-26.969c0.3-0.662,0.648-1.303,1.027-1.93
		c1.135-1.88,2.543-3.637,3.754-5.483c-0.186-3.596-0.373-7.191-0.56-10.787v0c-6.16-0.283-12.32-0.579-18.481-0.865
		c-6.16-0.286-12.321-0.561-18.483-0.801c-0.515-0.02-1.029-0.034-1.544-0.041c-3.601-0.044-7.184,0.305-10.561,1.838
		c1.038,2.905,2.414,5.744,3.198,8.7c0.112,0.422,0.212,0.847,0.297,1.275c3.079,15.468-7.221,30.569-22.758,33.732
		c-15.065,3.067-29.902-6.61-33.382-21.913c-0.716-3.147-0.888-6.417-1.309-9.631c-2.791,0.966-5.596,1.895-8.394,2.84
		c-1.831,0.619-3.66,1.243-5.479,1.894c-1.533,0.548-3.06,1.113-4.576,1.704c-8.85,3.45-17.495,7.436-26.385,10.776
		c-14.02,5.267-28.573,7.819-43.588,8.022c-14.015,0.19-27.898-0.599-41.608-3.698c-7.335-1.658-14.299-4.208-20.184-8.952
		c-2.729-2.2-5.35-4.806-7.226-7.735c-3.969-6.196-3.18-14.087,1.325-19.05c4.758-5.243,11.644-6.441,18.772-3.249
		c0.811,0.363,1.651,0.723,2.362,1.243c7.821,5.715,16.906,6.994,26.194,7.297c6.824,0.223,13.665,0.188,20.492,0.018
		c12.36-0.308,24.008-3.779,35.319-8.488c4.934-2.054,9.821-4.24,14.622-6.586c16.065-7.851,32.894-13.69,49.937-18.928
		c14.848-4.563,30.062-7.02,45.638-6.911c11.88,0.083,23.76,0.224,35.64,0.299c2.022,0.013,4.046-0.178,6.859-0.313
		c-0.61-1.909-0.725-3.412-1.487-4.432c-1.949-2.609-4.148-5.037-6.313-7.478c-13.986-15.771-24.419-33.57-30.581-53.771
		c-0.411-1.347-0.82-2.697-1.195-4.054c-0.164-0.593-0.319-1.188-0.468-1.784c-0.266-1.072-0.502-2.149-0.693-3.234
		c-0.431-2.458-0.629-4.956-0.406-7.519c-0.458-0.523-0.916-1.046-1.375-1.568c-0.872-0.995-1.744-1.99-2.617-2.984
		c-3.553-1.561-7.214-2.924-10.681-4.645c-0.495-0.246-0.987-0.499-1.473-0.761c-8.109-4.368-16.144-8.889-24.041-13.628
		c-7.514-4.51-15.114-4.772-23.046-1.492c-4.668,1.93-9.299,3.965-14.041,5.696c-6.966,2.543-13.866,5.517-21.058,7.141
		c-19.924,4.499-38.086-3.117-49.515-20.12c-7.941-11.815-12.143-25.071-14.715-38.913c-5.001-26.908,0.463-52.029,13.615-75.612
		c11.187-20.062,25.06-38.243,40.218-55.472c4.307-4.896,8.346-10.029,12.487-15.071c3.955-4.815,7.884-9.651,11.823-14.479l0,0
		c-0.001,0-0.001,0-0.002,0c-8.273-23.083-16.522-46.176-24.841-69.243c-0.282-0.782-0.57-1.563-0.875-2.335
		c-1.324-3.346-2.982-6.521-5.955-8.871c-9.542,1.075-18.155-0.689-25.427-6.552c-1.039-0.838-2.05-1.759-3.033-2.768
		c-2.124,2.136-3.024,4.808-3.622,7.615c-0.085,0.401-0.165,0.805-0.24,1.21c-6.451,34.544-17.232,67.86-28.699,100.979
		c-0.776,2.242-1.409,4.605-2.61,6.611c-1.811,3.024-3.701,6.157-6.195,8.591c-10.369,10.116-22.871,4.407-26.834-6.902
		c-1.412-4.03-1.443-8.216-0.429-12.304c1.141-4.602,2.43-9.19,4.015-13.656c9.739-27.444,18.07-55.282,24.265-83.757
		c3.407-15.659,7.025-31.278,12.301-46.456c0.747-2.15,0.95-4.488,1.509-7.26c-1.975-0.35-3.348-0.795-4.716-0.78
		c-1.464,0.016-2.933,0.42-4.382,0.736c-12.504,2.732-24.993,2.205-36.894-2.163c-14.988-5.502-30.123-6.095-45.618-3.762
		c-4.691,0.706-9.363,1.534-14.044,2.309c3.691,3.865,7.398,7.712,11.07,11.593c18.728,19.792,28.611,43.429,30.301,70.499
		c1.083,17.35-0.315,34.426-6.832,50.797c-5.004,12.569-11.818,23.905-21.697,33.323c-12.978,12.372-34.722,21.106-58.555,9.891
		c-8.425-3.964-16.057-9.04-22.668-15.551c-5.287-5.207-10.304-10.687-15.414-16.072c-2.248-2.369-4.44-4.792-6.637-7.21
		c-11.1-12.221-25.199-17.459-41.401-17.475c-11.93-0.012-23.725,1.642-35.313,4.34c-12.436,2.896-24.706,6.505-37.133,9.44
		c-7.202,1.702-14.529,3.182-21.883,3.838c-5.551,0.496-11.301-0.043-16.836-0.919c-4.881-0.773-9.196-1.021-13.609,1.883
		c-2.353,1.547-5.523,2.296-8.396,2.533c-12.196,1.009-20.926-9.439-18.084-21.349c0.138-0.577,0.2-1.242,0.534-1.69
		c4.626-6.218,2.65-12.32-0.222-18.444c-1.258-2.683-2.105-5.607-3.667-8.09c-0.578-0.919-1.136-1.846-1.675-2.782
		c-3.774-6.549-6.638-13.495-9.174-20.6c-0.389,0.707-0.776,1.422-1.16,2.124c0.091,15.605,0.18,31.224,0.269,46.844
		c0.168,0.305,0.368,0.599,0.48,0.923c0.028,0.08-0.232,0.259-0.361,0.38c0.916,7.353,1.625,14.752,2.796,22.076
		c1.984,12.419,0.422,24.254-5.038,35.579c-1.547,3.21-2.983,6.48-4.66,9.62c-6.729,12.593-14.3,24.647-22.882,36.082
		c-6.06,8.075-12.134,16.172-17.626,24.632c-13.279,20.456-27.263,40.359-43.354,58.734c-3.127,3.571-5.994,7.381-8.814,11.204
		c-1.747,2.368-3.178,4.969-4.751,7.466c0,0,0.001,0.001,0.001,0.001c-0.419,0.757-0.841,1.513-1.262,2.269
		c0,0,0.104,0.103,0.208,0.206c0.104,0.103,0.208,0.205,0.208,0.205c0.603-0.581,1.206-1.161,1.809-1.742
		c3.787-1.28,7.594-2.505,11.369-3.818c1.258-0.438,2.513-0.885,3.762-1.348c2.201-0.815,4.359-1.919,6.298-3.241
		c7.712-5.259,16.046-9.055,25.202-10.883c4.755-0.95,8.952-3.007,13.11-5.386c5.15-2.947,10.354-5.859,15.754-8.299
		c13.609-6.149,27.979-7.916,42.72-6.17c14.248,1.687,26.883,7.075,37.391,17.154c8.931,8.567,14.169,19.038,16.224,31.054
		c3.025,17.688,1.265,34.929-5.84,51.519c-10.272,23.987-26.037,43.812-45.977,60.43c-11.46,9.551-23.57,18.023-37.79,23.195
		c-12.19,4.433-24.598,6.993-37.572,5.706c-25.457-2.526-43.589-15.381-52.108-39.636c-9.111-25.942-10.197-52.347-0.526-78.595
		c1.667-4.525,2.684-9.035,2.353-13.916c-0.24-3.537,0.157-7.118,0.271-10.68c0,0-0.175-0.145-0.308-0.255l0.308,0.255
		c0.6-1.182,1.199-2.363,1.799-3.545l0,0c0.584-0.599,1.168-1.199,1.752-1.799c0,0-0.104-0.103-0.208-0.205
		c-0.104-0.103-0.208-0.206-0.208-0.206c-0.465,0.721-0.931,1.443-1.396,2.164c-0.73,1.072-1.459,2.145-2.189,3.217
		c-2.805,4.136-5.998,8.064-8.354,12.441c-20.575,38.236-29.016,79.362-28.17,122.481c0.376,19.187,4.977,37.568,13.777,54.738
		c1.87,3.648,2.895,7.829,6.178,10.674c6.427-1.171,12.832-2.122,19.422-1.118c28.125,4.285,42.348,26.097,45.291,46.12
		c2.229,15.168-0.836,29.501-9.038,42.584c-8.759,13.973-20.95,22.333-37.843,22.898c0.665,2.874,1.156,5.803,2.027,8.614
		c2.911,9.398,7.112,18.233,12.06,26.72c10.945,18.771,22.904,36.81,38.7,51.945c7.927,7.595,16.221,14.788,26.201,19.695
		c-0.716-7.979-1.465-15.956-2.14-23.938C220.769,983.743,222.974,965.899,228.881,948.51z M681.643,693.276
		c9.832-0.355,17.745,7.202,17.863,17.06c0.123,10.26-7.033,17.673-17.095,17.71c-9.983,0.037-17.789-7.573-17.701-17.258
		C664.793,701.695,672.618,693.601,681.643,693.276z M260.826,501.127c-9.211-0.082-16.954-7.866-16.973-17.061
		c-0.019-9.453,8.301-17.421,17.864-17.109c8.999,0.293,16.557,8.412,16.418,17.635
		C277.994,493.928,270.369,501.212,260.826,501.127z M418.902,913.247c-8.802,0.041-14.991-6.109-15.444-14.948
		c-0.517-10.075,8.408-16.326,15.262-16.331c8.661-0.242,15.877,6.763,16.047,15.581
		C434.933,906.157,427.81,913.205,418.902,913.247z M528.765,909.636c-10.943-0.16-19.735-9.15-19.52-19.959
		c0.212-10.697,9.493-19.734,20.083-19.556c10.624,0.179,19.741,9.564,19.547,20.123C548.674,901.141,539.7,909.796,528.765,909.636
		z M624.628,538.576c3.886-9.235,15.64-13.112,24.811-8.18c7.852,4.223,12.26,14.104,10.134,22.714
		c-1.92,7.775-8.744,12.88-17.061,12.764C628.635,566.234,619.773,550.113,624.628,538.576z M480.143,587.972
		c1.843-6.26,3.57-12.556,5.208-18.873c4.409-17.008,14.619-28.999,30.959-35.513c13.024-5.192,26.145-4.874,39.139,0.285
		c7.541,2.994,14.435,7.195,20.207,12.849c17.064,16.716,32.56,34.722,42.848,56.541c10.258,21.757,16.101,44.664,16.656,66.994
		c-0.024,10.184-1.057,18.436-3.192,26.51c-2.469,9.338-6.714,17.721-13.679,24.637c-10.928,10.851-24.041,14.921-39.122,12.724
		c-16.077-2.342-30-9.189-41.684-20.537c-24.572-23.866-41.679-52.43-53.201-84.494c-2.93-8.153-4.379-16.661-5.381-25.237
		C478.272,598.499,478.603,593.203,480.143,587.972z M488.287,796.731c-1.388,9.835-6.597,18.777-16.713,24.257
		c-9.232,5.002-20.504,3.704-28.263-3.151c-8.309-7.341-11.29-16.577-7.955-27.276c3.396-10.894,10.36-18.592,21.769-21.361
		C473.362,765.26,489.229,778.619,488.287,796.731z M422.556,619.284c16.193,0.393,28.766,12.679,28.821,28.872
		c0.677,13.549-11.808,28.916-29.055,28.475c-16.277-0.416-27.588-11.818-28.208-28.163
		C393.435,630.563,410.16,618.983,422.556,619.284z M373.31,444.261c16.519,0.029,28.602,12.219,28.463,28.713
		c0.439,18.288-16.105,28.989-28.887,28.52c-16.215-0.595-28.467-13.064-28.261-29.322
		C344.82,456.669,357.601,444.233,373.31,444.261z M332.425,762.215c14.107,0.042,25.54,11.406,25.59,25.438
		c0.05,14.009-11.48,25.662-25.382,25.654c-14.123-0.009-25.471-11.33-25.509-25.447
		C307.086,773.76,318.517,762.174,332.425,762.215z M252.264,826.268c16.536-0.171,29.478,12.816,29.222,29.322
		c-0.242,15.58-12.965,27.826-28.872,27.792c-16.404,0.441-28.925-13.352-28.802-28.799
		C223.936,838.896,236.51,826.43,252.264,826.268z"/>
	<path fill="#C93F1A" d="M254.155,344.872c2.536,7.105,5.4,14.051,9.174,20.6c0.539,0.936,1.097,1.863,1.675,2.782
		c1.562,2.483,2.409,5.407,3.667,8.09c2.872,6.123,4.847,12.225,0.222,18.444c-0.334,0.448-0.396,1.113-0.534,1.69
		c-2.842,11.909,5.888,22.357,18.084,21.349c2.873-0.238,6.043-0.986,8.396-2.533c4.413-2.903,8.729-2.656,13.609-1.883
		c5.535,0.876,11.285,1.415,16.836,0.919c7.353-0.656,14.68-2.137,21.883-3.838c12.428-2.935,24.697-6.544,37.133-9.44
		c11.587-2.698,23.383-4.352,35.313-4.34c16.202,0.016,30.301,5.253,41.401,17.475c2.196,2.418,4.388,4.841,6.637,7.21
		c5.109,5.385,10.127,10.865,15.414,16.072c6.611,6.511,14.242,11.586,22.668,15.551c23.833,11.214,45.577,2.481,58.555-9.891
		c9.879-9.417,16.694-20.754,21.697-33.323c6.517-16.371,7.915-33.447,6.832-50.797c-1.69-27.07-11.573-50.707-30.301-70.499
		c-3.672-3.881-7.379-7.729-11.07-11.591c-1.055-0.119-2.109-0.238-3.16-0.358c-8.184,2.728-16.606,4.042-25.106,4.808
		c-1.574,0.142-3.15,0.267-4.729,0.376c-1.443,0.1-2.888,0.189-4.333,0.271c-5.921,0.336-11.883,0.345-17.81,0.105
		c-25.756-1.042-49.251,6.35-71.314,18.99c-18.801,10.771-37.405,21.889-56.254,32.575c-12.193,6.913-25.145,12.05-39.004,14.671
		c-17.567,3.322-34.32,0.877-50.098-7.446c-5.228-2.758-10.053-6.281-15.052-9.472c-2.744-1.751-5.466-3.536-8.198-5.308
		c-0.984,5.883-1.969,11.768-2.954,17.653C253.786,344.048,254.028,344.413,254.155,344.872z"/>
	<path fill="#601908" d="M654.594,117.906c-0.711,8.071-0.605,15.954,0.39,23.932c1.332,10.677,5.377,20.049,13.092,27.621
		c4.444,4.36,9.192,8.41,13.803,12.599c1.533-0.217,3.067-0.433,4.6-0.65c1.117-1.377,2.105-2.888,3.372-4.109
		c7.255-6.99,14.853-13.649,21.782-20.944c4.853-5.108,10.125-6.571,16.823-5.272c9.782,1.897,18.731,5.628,26.849,11.319
		c5.098,3.574,10.128,7.262,14.999,11.138c17.094,13.603,36.313,19.855,58.13,16.622c13.44-1.992,25.976,0.279,37.856,6.653
		c6.532,3.504,13.003,7.121,19.539,10.616c4.828,2.581,7.355,6.536,8.162,11.948c2.494,16.714,5.171,33.4,7.781,50.097
		c4.041,0.004,7.676-1.26,11.12-3.137c0.492-0.268,0.98-0.549,1.465-0.84c11.889-7.142,20.412-17.233,25.302-30.121
		c10.375-27.345,7.831-54.189-3.938-80.501c-1.817-4.063-4.132-7.909-5.854-12.008c-1.48-3.523-2.441-7.264-3.632-10.911
		c-1.85-1.486-3.568-3.183-5.57-4.421c-19.229-11.887-38.787-23.13-60.08-31.056c-22.831-8.499-45.839-16.573-67.685-27.5
		c-2.124-1.062-4.321-1.983-6.505-2.922c-18.224-7.838-37.156-12.438-57.092-12.414c-10.103,0.012-20.207-0.058-30.309,0.075
		c-10.159,0.135-20.119,1.716-29.839,4.719c-0.908,2.825-1.667,5.703-2.747,8.456C659.967,83.325,656.145,100.294,654.594,117.906z"
		/>
	<path fill="#C93F1A" d="M271.287,1049.982c9.925,3.026,19.862,6.025,29.706,9.299c10.226,3.401,20.802,4.689,31.433,5.662
		c10.033,0.919,20.184,0.967,30.112,2.503c12.567,1.945,24.824,0.441,37.156-1.301c16.145-2.281,32.276-4.657,48.426-6.901
		c12.094-1.68,24.234-1.572,36.38-0.585c0.392-0.214,0.789-0.419,1.19-0.616l0,0c-0.373-2.87-0.788-5.736-1.145-8.608
		c-0.119-0.957-0.232-1.915-0.334-2.874c-1.499-14.018-5.47-27.312-11.437-40.063c-10.681-22.825-27.106-39.593-51.238-47.878
		c-10.091-3.464-20.47-6.121-30.789-8.878c-6.881-1.838-13.871-3.285-20.842-4.766c-10.925-2.321-20.831-6.757-29.785-13.476
		c-5.696-4.274-11.55-8.363-17.532-12.227c-8.798-5.683-18.246-10.049-28.634-11.863c-22.155-3.868-40.448,2.609-54.226,20.752
		c-4.71,6.201-8.342,12.972-10.847,20.347c-5.907,17.389-8.112,35.233-6.564,53.531c0.675,7.983,1.425,15.959,2.14,23.938
		c0.101,0.454,0.356,0.793,0.765,1.016c1.018,0.587,2.036,1.173,3.049,1.757c0.663,0.401,1.331,0.805,1.998,1.209
		c1.137,0.701,2.275,1.402,3.408,2.1c-1.133-0.698-2.27-1.399-3.408-2.1c1.137,0.701,2.275,1.402,3.407,2.1
		c1.791,1.101,3.586,2.205,5.382,3.309c1.184,0.69,2.368,1.38,3.547,2.067c6.972,3.591,13.949,7.186,20.925,10.782
		c0,0,0.001,0,0.001,0c-0.002-0.001-0.003-0.002-0.005-0.004C266.12,1048.797,268.758,1049.211,271.287,1049.982z"/>
	<path fill="#6C3015" d="M935.723,154.878c11.769,26.312,14.313,53.156,3.938,80.501c-4.89,12.889-13.413,22.98-25.302,30.121
		c-0.485,0.291-0.973,0.572-1.465,0.84c-3.444,1.877-7.079,3.141-11.117,3.137c-0.192,0.6-0.383,1.201-0.575,1.801
		c1.837,12.013,3.873,23.998,5.47,36.043c3.604,27.183,0.349,53.856-6.399,80.241c-0.732,2.861-1.411,5.8-1.568,8.733
		c-0.605,11.285,5.948,21.474,16.036,25.326c10.787,4.12,22.528,1.088,29.585-8.178c2.654-3.484,4.916-7.529,6.282-11.672
		c0.625-1.895,1.2-3.807,1.743-5.73c1.628-5.768,2.966-11.631,4.491-17.433c-1.779-0.099-3.558-0.19-5.336-0.3
		c-15.764-0.978-23.541-12.682-26.125-24.059c-2.429-10.695,3.439-21.471,13.858-26.199c4.666-2.117,9.595-3.103,14.751-2.55
		c3.246,0.348,6.487,0.744,9.73,1.118v0h0c0.031-5.341,0.063-10.678,0.094-16.014c0.008-1.379,0.016-2.758,0.024-4.137
		c-0.041-0.782-0.082-1.572-0.123-2.363c-0.032-3.957-0.063-7.915-0.097-11.865c0.001-0.002,0.001-0.003,0.002-0.005
		c0-0.001,0-0.002,0-0.002c0.148-0.339,0.295-0.678,0.442-1.016c0.301,0.309,0.602,0.618,0.902,0.927
		c8.683,15.376,14.118,32.023,19.021,48.861c6.391,21.951,12.577,43.962,18.986,65.908c2.994,10.254,6.304,20.415,9.471,30.618
		c0.482,0.003,0.961,0.028,1.44,0.082c5.488-2.861,10.817-6.026,16.732-7.942c1.365-0.442,2.761-0.818,4.198-1.108
		c6.989-1.412,13.875-2.101,20.952-0.611c7.206,1.517,14.488,2.534,21.797,0.445c0.188-9.79,0.371-19.58,0.568-29.369
		c0.287-14.312-1.15-28.501-3.964-42.485c-1.631-8.106-3.609-16.343-6.904-23.877c-10.165-23.238-23.127-44.786-40.571-63.483
		c-5.035-5.397-9.611-11.352-13.609-17.559c-9.495-14.738-17.742-30.19-24.829-46.249c-7.956-18.028-17.545-35.053-31.323-49.383
		c-9.085-9.45-18.882-18.035-30.691-24.028c1.191,3.647,2.152,7.388,3.632,10.911C931.59,146.969,933.905,150.815,935.723,154.878z
		 M983.722,239.315c12.492,0.15,22.419,10.285,22.592,22.591c0.168,11.974-12.203,23.803-23.379,23.417
		c-13.06-0.451-22.352-10.272-22.814-23.6C959.735,250.627,970.685,238.128,983.722,239.315z"/>
	<path fill="#A12E0F" d="M279.636,340.91c15.777,8.323,32.53,10.768,50.098,7.446c13.859-2.621,26.811-7.759,39.004-14.671
		c18.849-10.686,37.452-21.804,56.254-32.575c22.063-12.64,45.558-20.032,71.314-18.99c5.927,0.24,11.889,0.231,17.81-0.105
		c1.445-0.082,2.89-0.171,4.333-0.271c1.578-0.109,3.155-0.235,4.729-0.376c8.499-0.766,16.92-2.08,25.106-4.808
		c-2.9-2.583-5.641-5.386-8.67-7.797c-0.433-0.344-0.871-0.681-1.317-1.008c-18.045-13.225-37.25-24.366-58.44-31.862
		c-2.166-0.766-4.195-1.917-6.259-2.877c0.198-3.796,3.245-4.537,5.145-6.151c4.887-4.15,7.117-9.328,6.887-15.691
		c-0.322-8.904-6.795-15.72-15.698-16.265c-14.362-0.88-25.087,12.767-20.348,25.15c0.724,1.891,1.233,3.863,2.028,6.387
		c-1.71,0.495-2.99,0.995-4.315,1.204c-0.847,0.133-1.766-0.137-2.645-0.272c-21.541-3.324-43.236-2.975-64.899-2.303
		c-15.546,0.483-30.561,3.98-44.994,9.947c-4.356,1.801-8.995,2.917-13.504,4.346l0-0.001c0,0,0,0.001-0.001,0.001
		c0,0,0.017-0.023,0.033-0.044c0.025-0.034,0.052-0.07,0.053-0.072c-0.545,0.549-1.09,1.097-1.635,1.645
		c-1.847,1.84-3.694,3.68-5.541,5.52c-3.993,5.672-8.259,11.101-12.747,16.33c-2.698,3.143-5.471,6.218-8.327,9.219
		c-4.566,4.796-9.325,9.417-14.247,13.893c-3.746,3.406-7.966,6.071-12.807,7.675c-0.993,0.48-1.985,0.96-2.977,1.441
		c-4.276,9.946-5.432,20.56-6.669,31.159c2.732,1.772,5.454,3.557,8.198,5.308C269.583,334.628,274.408,338.152,279.636,340.91z"/>
	<path fill="#601908" d="M998.576,702.705c-0.953,0.385-1.917,0.742-2.888,1.081c-2.914,1.018-5.892,1.877-8.824,2.85v0
		c-1.305,1.588-2.611,3.176-3.917,4.768c-1.106,3.413-2.161,6.843-3.269,10.255c-0.628,1.933-1.269,3.861-1.957,5.772
		c-3.915,10.874-8.076,21.66-11.984,32.537c-3.058,8.508-7.389,16.092-14.192,22.234c-3.954,3.57-7.596,7.494-11.268,11.363
		c-6.61,6.962-11.759,14.892-14.985,23.954c-5.677,15.949-3.29,30.342,8.829,42.599c3.117,3.152,6.527,6.03,9.933,8.877
		c3.637,3.04,7.437,5.887,11.153,8.833c5.768,4.573,9.184,10.066,6.889,17.764c0,0,0,0,0,0c4.405,5.142,7.79,10.834,10.538,16.992
		c0.393,0.88,0.772,1.769,1.14,2.667c2.33,5.693,5.443,11.112,8.665,16.375c1.65,2.695,4.299,4.779,6.498,7.14
		c3.051-5.737,6.526-11.293,9.076-17.245c9.747-22.754,13.903-46.458,11.016-71.191c-0.892-7.647-1.846-15.294-3.067-22.894
		c-1.069-6.656-0.415-13.015,2.372-19.106c2.956-6.461,5.924-12.925,9.175-19.24c11.526-22.391,23.299-44.655,34.696-67.112
		c3.065-6.039,5.124-12.589,7.645-18.904c-7.035-2.956-14.388-4.774-21.842-5.816c-2.485-0.347-4.98-0.608-7.479-0.796
		C1019.478,695.629,1008.844,698.555,998.576,702.705z"/>
	<path fill="#601908" d="M444.74,148.38c0.3,0.501,0.617,0.979,0.951,1.435c2.336,3.19,5.505,5.261,9.591,5.993
		c6.458-2.934,11.95-7.198,17.121-11.88c1.193-1.081,2.369-2.183,3.536-3.297c4.926-4.702,9.621-9.645,14.539-14.355
		c14.809-14.183,32.553-23.493,51.509-30.75c1.096-0.42,2.272-0.688,3.436-0.863c2.32-0.348,4.139,0.597,5.089,2.693
		c1.097,2.42,1.916,4.965,2.874,7.449c3.729,9.664,7.292,19.397,11.292,28.947c1.455,3.474,3.958,6.51,5.978,9.748
		c5.817-6.722,11.702-13.386,17.429-20.184c4.965-5.893,9.863-11.85,14.591-17.933c10.069-12.956,12.632-27.827,10.767-43.748
		c-0.31-2.651-0.724-5.289-1.087-7.934c-2.009-0.477-3.996-1.179-6.035-1.397c-14.739-1.574-29.508-2.698-44.349-2.175
		c-15.56,0.547-30.576,3.599-44.803,10.068c-12.673,5.763-25.285,11.662-37.976,17.386c-9.72,4.384-19.616,8.388-29.242,12.966
		c-3.946,1.876-7.386,4.816-11.056,7.272c-0.703,5.871-1.324,11.753-2.126,17.609C435.12,127.472,438.66,138.235,444.74,148.38z"/>
	<path fill="#6C3015" d="M602.676,105.383c-4.728,6.084-9.626,12.04-14.591,17.933c-5.727,6.798-11.612,13.461-17.429,20.184
		c0,0,0.001,0.001,0.001,0.002c-0.056,0.888-0.106,1.773-0.156,2.657c7.311,11.898,14.302,24.007,22.017,35.637
		c8.451,12.74,20.859,20.005,35.618,23.478c6.263,1.474,12.493,1.469,18.385-1.131c12.825-5.659,24.98-12.467,35.355-22.085
		c-4.61-4.19-9.358-8.24-13.802-12.6c-7.715-7.571-11.76-16.943-13.092-27.621c-0.995-7.978-1.101-15.861-0.39-23.932
		c1.552-17.612,5.373-34.58,11.817-51.01c1.08-2.753,1.838-5.631,2.747-8.456c0-0.002,0.001-0.004,0.002-0.005
		c-18.776-3.466-37.749-4.579-56.803-4.733c0.364,2.645,0.777,5.283,1.087,7.934C615.308,77.556,612.745,92.427,602.676,105.383z"/>
	<path fill="#601908" d="M1090.543,518.587c-2.364-18.236-6.159-36.183-10.384-54.04c-1.929-8.151-2.893-16.273-2.448-24.626
		c0.204-3.83-0.087-7.685-0.152-11.529c-7.308,2.09-14.591,1.072-21.797-0.445c-7.077-1.49-13.963-0.8-20.952,0.611
		c-1.437,0.29-2.833,0.666-4.198,1.108c-5.915,1.917-11.243,5.082-16.731,7.946c0.547,2.334,0.942,4.724,1.487,7.058
		c0.216,0.926,0.456,1.844,0.739,2.745c0.142,0.453,0.295,0.903,0.461,1.347c4.876,13.039,10.02,25.979,15.087,38.947
		c9.079,23.232,13.007,47.343,12.137,72.227c-0.084,2.403-0.192,4.808-0.407,7.198c-0.086,0.956-0.189,1.909-0.315,2.858
		c-0.063,0.475-0.131,0.948-0.206,1.421c-0.597,3.781-1.594,7.49-3.33,11.05c0,0,0,0,0,0l0,0c0.185,2.143,0.37,4.286,0.555,6.429
		c2.948,0.931,4.976,3.027,6.98,5.256c3.16,3.514,6.634,6.754,9.702,10.343c7.285,8.523,16.609,13.055,27.543,14.622
		c0.826-3.449,1.982-6.854,2.43-10.35c1.806-14.087,3.894-28.165,4.927-42.316C1092.839,550.507,1092.609,534.523,1090.543,518.587z
		"/>
	<path fill="#6C3015" d="M982.438,931.623c-3.221-5.262-6.334-10.682-8.665-16.375c-0.368-0.898-0.747-1.787-1.14-2.667
		c-2.748-6.158-6.133-11.85-10.538-16.992c0,0,0,0,0,0c0,0.001,0,0.001,0,0.002c-0.477,0.058-0.957,0.102-1.438,0.132
		c-5.473,13.361-12.006,26.173-19.984,38.219c-0.445,0.671-0.91,1.329-1.388,1.978c-1.435,1.947-2.987,3.817-4.453,5.744
		c0.122,0.715,0.243,1.43,0.365,2.146c8.985,5.049,11.965,11.193,10.302,21.246c-1.265,7.649-7.098,13.309-15.508,15.146
		c-5.289,1.155-10.01-0.096-14.207-3.338c-3.324-2.567-6.104-5.619-7.39-9.764c-0.688-0.108-1.375-0.215-2.063-0.324
		c-15.276,6.487-28.354,16.182-40.686,26.936c-1.762,1.536-3.508,3.094-5.244,4.667c-8.376,7.593-17.34,14.409-27.009,20.213
		c-22.394,13.442-43.993,28.006-64.458,44.255c-11.412,9.061-23.528,17.034-37.141,22.506c-0.026,0.129-0.051,0.256-0.077,0.385
		c-0.086,0.429-0.172,0.857-0.254,1.284c1.468,2.397,2.94,4.792,4.415,7.189c0.038,0.062,0.076,0.124,0.114,0.186
		c4.418-1.672,8.961-3.073,13.225-5.068c18.028-8.434,36.56-15.48,55.673-21.046c15.671-4.564,31.071-9.921,45.859-16.881
		c2.91-1.37,5.547-3.319,8.311-5c-1.112-1.728-2.36-3.385-3.313-5.197c-3.779-7.193-2.57-15.325,3.036-21.131
		c8.083-8.371,23.819-4.582,27.397,6.691c0.699,2.201,0.689,4.627,1.007,6.953c5.692-0.854,10.634-3.597,15.605-6.243
		c12.112-6.446,22.936-14.702,33.225-23.707c17.93-15.694,34.109-32.944,46.853-53.183c2.35-3.733,4.06-7.869,6.065-11.82
		C986.737,936.402,984.088,934.318,982.438,931.623z"/>
	<path fill="#A12E0F" d="M700.394,1097.686c7.205-2.787,14.317-5.822,21.572-8.466c3.031-1.105,6.325-1.489,9.496-2.198
		c0.081-0.427,0.168-0.856,0.254-1.284c0.026-0.127,0.05-0.255,0.076-0.382c-3.76-0.357-6.999-1.839-9.979-3.994
		c-0.426-0.308-0.846-0.63-1.262-0.964c-3.937-3.162-7.917-6.281-12.014-9.23c-12.744-9.172-26.668-15.522-42.412-17.47
		c-1.324-0.164-2.639-0.403-3.952-0.663c-1.312-0.26-2.622-0.54-3.937-0.786c0,0,0,0,0,0h0c-5.574,0.891-11.14,1.825-16.721,2.665
		c-10.562,1.588-19.933,5.706-27.988,12.795c-2.674,2.353-5.548,4.481-8.33,6.712c-0.369,1.125-0.63,2.301-1.124,3.369
		c-9.561,20.685-8.339,41.407-0.292,62.173c1.178,3.04,2.269,6.113,3.404,9.171c13.309,0.038,26.29-1.604,38.467-7.417
		c1.108-1.747,2.017-3.667,3.355-5.215C663.357,1119.9,679.569,1105.743,700.394,1097.686z"/>
	<path fill="#6C3015" d="M270.352,283.898c3.913-5.558,7.887-11.264,12.804-15.88c6.882-6.461,14.516-12.159,22.111-17.804
		c2.516-1.87,5.905-2.566,8.895-3.799c0,0,0,0,0,0c1.847-1.84,3.694-3.68,5.541-5.52c0.545-0.548,1.09-1.096,1.635-1.645
		c0,0,0.001,0,0.001-0.001c0,0-0.029,0.038-0.054,0.072c-0.015,0.02-0.033,0.044-0.033,0.044c0,0,0,0,0.001-0.001
		c2.49-2.735,4.932-5.518,7.403-8.272c2.471-2.755,4.97-5.481,7.575-8.103c13.567-13.662,27.533-26.935,40.924-40.765
		c9.606-9.921,21.023-15.039,34.651-15.818c5.024-0.287,10.027-0.914,15.045-1.323c1.159-0.095,2.306-0.236,3.443-0.415
		c0.627-0.098,1.25-0.211,1.872-0.331c7.266-1.406,14.174-4.193,21.309-6.105c0.604-0.811,1.206-1.619,1.808-2.424
		c-4.085-0.732-7.254-2.803-9.591-5.993c-0.334-0.456-0.651-0.934-0.951-1.435c-6.08-10.146-9.62-20.909-7.971-32.95
		c0.802-5.857,1.423-11.739,2.126-17.609c-4.37,2.413-8.888,4.594-13.081,7.282c-11.913,7.637-23.721,15.44-35.508,23.272
		c-3.172,2.108-6.12,4.551-9.171,6.84c1.982,0.604,4.046,1.021,5.931,1.844c7.714,3.369,11.93,11.531,10.271,19.618
		c-1.517,7.397-8.854,13.714-16.371,14.096c-7.763,0.395-15.742-5.504-17.707-13.483c-0.77-3.126-0.732-6.451-1.061-9.691
		c-2.739,1.752-5.633,3.309-8.19,5.3c-17.908,13.939-33.473,30.116-46.592,48.671c-14.113,19.96-25.278,41.541-35.208,63.775
		c-4.223,9.455-8.132,19.126-9.151,29.625c0.992-0.481,1.984-0.961,2.977-1.441C267.439,290.295,268.363,286.722,270.352,283.898z"
		/>
	<path fill="#B75B32" d="M604.073,1077.789c0.494-1.068,0.755-2.243,1.124-3.369c-2.916,0.445-5.902,0.627-8.736,1.381
		c-11.77,3.131-23.774,4.833-35.814,6.477c-6.415,0.876-12.38,0.432-17.983-2.951c-0.965,0.065-1.93,0.13-2.902,0.197
		c-4.208,3.764-8.949,5.991-13.718,6.821c-10.065,1.753-20.253-2.718-25.797-12.094c-1.167-1.974-2.129-4.165-2.84-6.562
		c-0.586-1.974-0.781-4.065-1.158-6.101c-0.233-1.211-0.466-2.423-0.703-3.631c-0.001,0-0.002,0-0.003,0
		c-3.286,0.031-6.569,0.059-9.852,0.088c0,0,0,0-0.001,0l0,0c-0.402,0.197-0.798,0.402-1.19,0.616
		c0.967,11.061-0.764,21.839-3.931,32.355c-2.734,9.078-6.465,17.78-11.773,25.731c-1.144,1.713-2.022,3.603-3.024,5.411
		c5.018,0.225,10.038,0.67,15.055,0.634c13.767-0.099,27.098,2.193,40.1,6.642c2.792,0.955,5.674,1.646,8.515,2.458
		c0.714-0.524,1.397-1.099,2.148-1.563c11.468-7.093,23.1-3.044,27.619,9.631c0.394,1.104,0.552,2.292,0.815,3.439
		c15.243,5.822,30.937,7.969,47.161,5.733c-1.134-3.057-2.226-6.131-3.404-9.171
		C595.734,1119.196,594.512,1098.474,604.073,1077.789z"/>
	<path fill="#A12E0F" d="M480.569,1091.015c3.168-10.517,4.898-21.295,3.931-32.355c-12.146-0.987-24.286-1.095-36.38,0.585
		c-16.15,2.244-32.281,4.62-48.426,6.901c-12.332,1.742-24.589,3.245-37.156,1.301c-9.928-1.536-20.079-1.584-30.112-2.503
		c-10.631-0.974-21.207-2.262-31.433-5.662c-9.844-3.273-19.781-6.273-29.706-9.299c-2.529-0.771-5.168-1.185-7.76-1.766
		c0.002,0.001,0.003,0.002,0.005,0.004c4.333,3.398,9.647,4.52,14.716,6.104c25.247,7.889,50.445,15.957,75.847,23.315
		c11.68,3.384,21.875,8.851,31.389,16.252c7.016,5.458,14.413,10.549,22.114,14.98c17.96,10.334,37.367,15.05,58.174,13.287
		c1.002-1.808,1.88-3.698,3.024-5.411C474.104,1108.795,477.835,1100.093,480.569,1091.015z"/>
	<path fill="#6C3015" d="M1056.773,604.491c-3.068-3.589-6.542-6.829-9.702-10.343c-2.004-2.229-4.032-4.326-6.98-5.256
		c-1.386,3.247-3.015,6.413-4.12,9.753c-9.512,28.747-22.13,56.101-36.767,82.564c-3.15,5.694-6.309,11.388-9.243,17.195
		c-0.822,1.626-1.429,3.36-2.018,5.105c-0.353,1.047-0.699,2.097-1.08,3.129c2.932-0.973,5.91-1.832,8.824-2.85
		c0.971-0.339,1.935-0.697,2.888-1.081c10.269-4.15,20.902-7.076,31.952-6.246c2.499,0.188,4.995,0.448,7.479,0.796
		c7.454,1.041,14.807,2.86,21.843,5.815c6.414-13.721,10.905-28.072,14.074-42.857c-1.939,0.695-3.855,1.46-5.82,2.072
		c-6.64,2.069-12.229,0.082-16.781-4.837c-4.494-4.855-4.454-10.732-2.666-16.59c1.289-4.221,4.642-6.798,8.762-8.052
		c5.616-1.709,11.054-1.413,15.873,2.463c1.834,1.475,3.689,2.924,5.539,4.392c3.885-6.298,4.699-13.42,5.486-20.548
		C1073.382,617.545,1064.058,613.014,1056.773,604.491z"/>
	<path fill="#C93F1A" d="M183.313,896.107c8.202-13.083,11.267-27.417,9.038-42.584c-2.942-20.024-17.166-41.836-45.291-46.12
		c-6.59-1.004-12.995-0.053-19.422,1.118c1.117,2.418,2.079,4.923,3.378,7.238c4.467,7.963,6.584,16.49,6.603,25.592
		c0.011,5.345,0.145,10.69,0.201,16.036c0.182,17.259,1.555,34.412,4.795,51.379c0.662,3.468,1.888,6.828,2.855,10.239
		C162.363,918.44,174.554,910.081,183.313,896.107z"/>
	<path fill="#601908" d="M721.967,1089.22c-7.255,2.645-14.367,5.679-21.572,8.466c-20.826,8.057-37.038,22.213-51.388,38.814
		c-1.338,1.548-2.247,3.468-3.355,5.215c3.713-0.994,7.691-1.44,11.091-3.083c10.425-5.035,20.979-9.954,30.829-15.985
		c12.936-7.922,25.836-15.828,39.47-22.513c3.162-1.551,5.978-3.804,8.95-5.737c-0.038-0.062-0.076-0.124-0.114-0.186
		c-1.475-2.397-2.947-4.792-4.415-7.189C728.292,1087.732,724.998,1088.115,721.967,1089.22z"/>
	<path fill="#601908" d="M380.967,170.773c7.517-0.382,14.854-6.699,16.371-14.096c1.659-8.087-2.558-16.249-10.271-19.618
		c-1.886-0.823-3.949-1.24-5.931-1.844c-7.47,2.358-13.589,6.78-18.937,12.385c0.33,3.239,0.291,6.564,1.061,9.691
		C365.225,165.27,373.204,171.168,380.967,170.773z"/>
	<path fill="#601908" d="M1057.419,632.807c-4.12,1.254-7.474,3.83-8.762,8.052c-1.788,5.858-1.828,11.735,2.666,16.59
		c4.552,4.918,10.141,6.905,16.781,4.837c1.964-0.612,3.881-1.377,5.82-2.072c3.021-6.517,4.036-13.514,4.907-20.552
		c-1.85-1.468-3.705-2.917-5.539-4.392C1068.473,631.394,1063.035,631.097,1057.419,632.807z"/>
	<path fill="#601908" d="M858.783,1020.073c-5.606,5.806-6.814,13.938-3.036,21.131c0.952,1.812,2.2,3.469,3.313,5.197
		c9.76-3.374,19.328-7.177,28.128-12.684c-0.318-2.326-0.308-4.752-1.007-6.953C882.602,1015.491,866.866,1011.701,858.783,1020.073
		z"/>
	<path fill="#A12E0F" d="M531.589,1130.329c-0.751,0.464-1.433,1.039-2.148,1.563c9.858,4.724,19.875,9.026,30.582,11.507
		c-0.263-1.147-0.421-2.335-0.815-3.439C554.689,1127.285,543.057,1123.235,531.589,1130.329z"/>
	<path fill="#6C3015" d="M253.433,343.784c-0.145,1.066-0.291,2.132-0.438,3.212c0.385-0.701,0.771-1.416,1.16-2.124
		C254.028,344.413,253.786,344.048,253.433,343.784z"/>
	<path fill="none" stroke="#A12E0F" stroke-width="0" stroke-linecap="round" stroke-linejoin="round" d="M228.271,1028.752
		c-1.013-0.583-2.031-1.17-3.049-1.757"/>
	<path fill="none" stroke="#A12E0F" stroke-width="0" stroke-linecap="round" stroke-linejoin="round" d="M242.606,1037.437
		c-1.179-0.687-2.363-1.377-3.547-2.067"/>
	<path fill="#6C3015" d="M253.744,394.763c-0.112-0.324-0.312-0.618-0.48-0.923l-0.345,0.683c0,0,0.463,0.607,0.464,0.62
		C253.512,395.022,253.772,394.843,253.744,394.763z"/>
	<path fill="none" stroke="#A12E0F" stroke-width="0" stroke-linecap="round" stroke-linejoin="round" d="M233.677,1032.061
		c-1.133-0.698-2.27-1.399-3.408-2.1"/>
	<path fill="#B75B32" d="M1027.311,570.882c-7-8.466-13.783-17.117-20.505-25.808c-10.173-13.154-15.148-28.019-14.888-44.742
		c0.153-9.838,0.79-19.538,3.007-29.165c2.312-10.038,6.533-19.042,12.942-27.081c0.829-1.04,1.593-2.133,2.339-3.239
		c0.746-1.106,1.474-2.226,2.233-3.32c-3.165-10.199-6.476-20.363-9.47-30.618c-6.409-21.946-12.594-43.957-18.986-65.908
		c-4.903-16.838-10.338-33.486-19.021-48.861l-0.669,0.116c0,0-0.679-0.012-0.677-0.019c0.034,3.95,0.065,7.908,0.097,11.865
		c0.041,0.791,0.082,1.581,0.123,2.363c0,0,0,0,0,0.001c-0.008,1.378-0.016,2.758-0.024,4.136
		c-0.031,5.336-0.063,10.674-0.094,16.014h0l0.21-0.002c0.156-0.002,0.34-0.003,0.339-0.004c1.353,0.58,2.727,1.108,4.05,1.745
		c10.413,5.015,15.223,13.503,14.867,24.853c-0.353,11.249-6.502,18.59-16.64,22.716c-2.664,1.084-5.665,1.338-8.512,1.973
		c-0.39,0.249-0.787,0.485-1.192,0.71c0,0,0,0,0,0c-1.525,5.802-2.863,11.665-4.491,17.433c-0.543,1.923-1.118,3.834-1.743,5.73
		c-1.366,4.144-3.628,8.188-6.282,11.672c-7.057,9.266-18.798,12.298-29.585,8.178c-10.088-3.853-16.641-14.042-16.036-25.326
		c0.157-2.932,0.836-5.871,1.568-8.733c6.747-26.385,10.002-53.058,6.399-80.241c-1.597-12.044-3.633-24.03-5.47-36.043
		c-4.17,0.748-8.263,1.126-12.286,1.177c-2.012,0.026-4.007-0.03-5.985-0.162c-4.616-0.309-9.145-1.033-13.598-2.105
		c-0.636-0.153-1.271-0.313-1.904-0.48c-1.266-0.334-2.527-0.696-3.781-1.084c-1.255-0.388-2.504-0.801-3.747-1.239
		c-1.244-0.438-2.482-0.901-3.715-1.386c-5.55-2.184-10.998-4.83-16.371-7.792c-14.369-7.922-27.241-17.927-39.051-29.288
		c-5.986-5.758-11.964-11.535-17.708-17.532c-15.46-16.141-34.376-23.775-56.624-23.581c-5.338,0.047-10.701,0.076-16.013-0.359
		c-8.281-0.678-16.576-1.574-23.936-6.036c-1.536,0.215-3.07,0.431-4.605,0.648c-10.375,9.618-22.53,16.427-35.355,22.085
		c-5.892,2.599-12.122,2.605-18.385,1.131c-14.759-3.474-27.168-10.739-35.618-23.478c-7.715-11.63-14.707-23.739-22.017-35.637
		c-3.261,1.01-5.523,3.357-7.775,5.744c-15.801,16.749-35.789,24.173-58.258,24.556c-15.699,0.268-30.442-4.424-43.712-13.111
		c-2.481-1.624-4.861-3.402-7.284-5.112c-7.133,1.909-14.04,4.695-21.306,6.102c-0.621,0.12-1.245,0.233-1.872,0.331
		c-1.137,0.179-2.284,0.32-3.443,0.415c-5.018,0.41-10.021,1.036-15.045,1.323c-13.627,0.779-25.045,5.896-34.651,15.818
		c-13.391,13.83-27.357,27.102-40.924,40.765c-2.604,2.622-5.104,5.349-7.575,8.103c-2.471,2.755-4.913,5.538-7.403,8.273
		c4.51-1.43,9.148-2.545,13.504-4.346c14.433-5.967,29.448-9.464,44.994-9.947c21.664-0.672,43.358-1.021,64.899,2.303
		c0.879,0.136,1.798,0.406,2.645,0.272c1.325-0.209,2.605-0.708,4.315-1.204c-0.794-2.524-1.304-4.496-2.028-6.387
		c-4.739-12.383,5.986-26.03,20.348-25.15c8.903,0.545,15.376,7.361,15.698,16.265c0.23,6.363-2,11.541-6.887,15.691
		c-1.9,1.614-4.947,2.356-5.145,6.151c2.064,0.96,4.094,2.111,6.259,2.877c21.19,7.495,40.395,18.637,58.44,31.862
		c0.446,0.327,0.884,0.663,1.317,1.008c3.029,2.411,5.77,5.214,8.67,7.797c0,0,0,0,0,0c1.051,0.12,2.106,0.239,3.16,0.356
		c4.681-0.774,9.353-1.603,14.044-2.309c15.495-2.332,30.63-1.74,45.618,3.762c11.901,4.368,24.39,4.895,36.894,2.163
		c1.449-0.316,2.918-0.72,4.382-0.736c1.368-0.016,2.741,0.43,4.716,0.78c-0.56,2.772-0.762,5.111-1.509,7.26
		c-5.277,15.178-8.894,30.797-12.301,46.456c-6.195,28.475-14.526,56.313-24.265,83.757c-1.585,4.466-2.873,9.054-4.015,13.656
		c-1.014,4.088-0.983,8.275,0.429,12.304c3.964,11.309,16.466,17.018,26.834,6.902c2.494-2.433,4.384-5.566,6.195-8.591
		c1.201-2.006,1.834-4.369,2.61-6.611c11.467-33.119,22.248-66.435,28.699-100.979c0.076-0.405,0.155-0.809,0.24-1.21
		c0.598-2.807,1.498-5.479,3.62-7.618c-0.328-0.729-0.656-1.457-0.983-2.184c-0.305-0.677-0.611-1.355-0.916-2.032
		c-3.035-3.368-4.623-7.109-5.227-11.038c-0.39-2.539-0.376-5.157-0.054-7.807c0.117-0.964,0.273-1.933,0.463-2.903
		c1.675-8.566,7.38-14.108,15.606-16.671c12.115-3.776,28.391,1.438,36.277,11.275c9.206,11.482,4.851,31.207-8.453,37.418
		c-2.284,1.066-5.142,0.905-7.735,1.312l0,0l0,0c-0.172,0.652-0.344,1.304-0.515,1.955c2.972,2.35,4.63,5.526,5.955,8.871
		c0.306,0.772,0.593,1.553,0.875,2.335c8.319,23.067,16.568,46.159,24.841,69.243c0.001,0,0.001,0,0.002,0
		c0.658,0.096,1.315,0.192,1.973,0.288c6.379-6.361,13.861-11.143,21.733-15.423c20.204-10.984,40.531-10.272,60.717-0.315
		c6.086,3.002,11.738,7.005,17.249,11.016c6.483,4.718,12.521,10.039,18.887,14.925c10.208,7.835,18.91,17.119,27.078,27.01
		c12.317,14.917,24.239,30.094,33.841,46.955c8.422,14.79,15.648,30.047,18.661,46.993c4.658,26.197,1.268,51.147-13.268,73.65
		c-13.686,21.186-33.383,33.545-58.944,35.238c-9.255,0.613-18.322-1.294-27.201-4.042c-5.373-1.662-10.867-2.937-16.306-4.387
		c-0.223,2.563-0.026,5.061,0.406,7.519c0.19,1.085,0.427,2.162,0.693,3.234c0.148,0.596,0.304,1.191,0.468,1.784
		c0.375,1.358,0.784,2.708,1.195,4.054c6.162,20.201,16.595,38,30.581,53.771c2.165,2.442,4.364,4.869,6.313,7.478
		c0.762,1.02,0.877,2.523,1.487,4.432c-2.813,0.135-4.836,0.326-6.859,0.313c-11.88-0.075-23.76-0.216-35.64-0.299
		c-15.576-0.109-30.79,2.348-45.638,6.911c-17.043,5.237-33.871,11.077-49.937,18.928c-4.801,2.346-9.689,4.532-14.622,6.586
		c-11.311,4.709-22.959,8.18-35.319,8.488c-6.827,0.17-13.668,0.205-20.492-0.018c-9.288-0.303-18.374-1.583-26.194-7.297
		c-0.711-0.519-1.551-0.879-2.362-1.243c-7.129-3.192-14.014-1.994-18.772,3.249c-4.505,4.963-5.294,12.854-1.325,19.05
		c1.877,2.929,4.497,5.535,7.226,7.735c5.885,4.744,12.85,7.295,20.184,8.952c13.71,3.099,27.593,3.888,41.608,3.698
		c15.015-0.203,29.568-2.755,43.588-8.022c8.89-3.34,17.534-7.325,26.385-10.776c1.516-0.591,3.043-1.156,4.576-1.704
		c1.819-0.65,3.648-1.275,5.479-1.894c2.799-0.945,5.604-1.874,8.394-2.84l0,0c0.558-0.648,1.114-1.296,1.668-1.942
		c0.374-6.479,3.03-11.304,7.043-15.086c0.918-0.865,1.914-1.671,2.963-2.434c1.244-0.905,2.565-1.75,3.959-2.535
		c0.514-0.289,1.037-0.571,1.567-0.847c8.823-4.577,17.689-3.947,26.222,0.913c3.655,2.082,6.605,4.965,7.742,9.255
		c0.932,0.171,1.865,0.343,2.793,0.514c3.377-1.533,6.96-1.883,10.561-1.838c0.514,0.006,1.029,0.021,1.544,0.041
		c6.162,0.24,12.323,0.515,18.483,0.801c6.16,0.286,12.32,0.582,18.481,0.865v0l0,0c0.045-0.443,0.094-0.886,0.141-1.329
		c0.047-0.443,0.091-0.886,0.128-1.33c1.749-21.421,13.026-35.881,32.682-43.809c5.728-2.31,11.88-3.913,17.99-4.857
		c10.268-1.587,20.65-2.335,31.088-2.005c9.522,0.301,19.026,0.053,28.284-2.646c0,0,0,0,0,0c1.306-1.592,2.612-3.18,3.917-4.768v0
		c0.381-1.032,0.727-2.082,1.08-3.129c0.588-1.744,1.196-3.479,2.018-5.105c2.933-5.806,6.093-11.5,9.243-17.195
		c14.637-26.463,27.256-53.817,36.767-82.564c1.105-3.339,2.734-6.506,4.12-9.753c-0.185-2.143-0.37-4.286-0.555-6.429
		c-2.522-1.417-4.684-3.231-6.663-5.232C1030.895,575.231,1029.099,573.045,1027.311,570.882z M584.457,233.069
		c-4.036,1.664-8.541,2.193-12.83,3.243c-18.151,0.376-33.596-18.134-24.355-37.608c4.863-10.247,13.992-14.01,24.683-14.7
		c10.982-0.708,19.906,3.181,25.576,12.838C605.247,209.986,599.106,227.029,584.457,233.069z M619.438,255.168
		c-11.736,0.218-19.749-7.459-19.893-19.059c-0.152-12.216,7.12-19.903,18.866-19.941c11.143-0.036,19.929,8.516,19.985,19.452
		C638.449,246.181,629.922,254.974,619.438,255.168z M772.211,272.883c-9.657,0.284-17.167-6.882-17.262-16.469
		c-0.094-9.592,7.269-16.953,16.881-16.875c9.203,0.074,16.261,7.186,16.363,16.488
		C788.296,265.327,781.387,272.614,772.211,272.883z M869.461,309.756c-2.388,7.366-9.134,12.513-16.608,12.672
		c-7.743,0.165-15.549-6.389-17.049-14.313c-2.297-12.134,8.183-23.642,20.295-21.952c2.801,0.391,5.761,1.681,8.041,3.374
		C869.903,293.815,871.896,302.244,869.461,309.756z M939.174,698.897c-8.888-0.049-15.672-6.895-15.997-15.77
		c-0.252-6.884,6.224-16.167,15.887-15.779c9.34-0.132,15.598,6.053,15.699,15.519C954.856,691.617,947.729,698.945,939.174,698.897
		z M985.76,644.212c-10.274,0.103-17.775-6.898-17.895-16.704c-0.121-9.85,7.207-17.094,17.405-17.206
		c10.039-0.111,17.475,7.232,17.38,17.162C1002.559,637.047,995.431,644.116,985.76,644.212z"/>
	<path fill="#A12E0F" d="M844.496,651.972c8.879,2.747,17.946,4.655,27.201,4.042c25.56-1.694,45.258-14.052,58.944-35.238
		c14.536-22.503,17.926-47.453,13.268-73.65c-3.013-16.946-10.239-32.202-18.661-46.993c-9.601-16.862-21.524-32.039-33.841-46.955
		c-8.167-9.892-16.869-19.175-27.078-27.01c-6.365-4.885-12.404-10.207-18.887-14.925c-5.511-4.011-11.163-8.014-17.249-11.016
		c-20.186-9.958-40.513-10.67-60.717,0.315c-7.872,4.28-15.355,9.062-21.733,15.423c0.599,8.099,4.832,14.501,9.723,20.555
		c1.671,2.069,3.517,4.025,5.469,5.833c4.106,3.803,4.369,7.967,1.994,12.844c-2.722,5.591-4.945,11.424-7.629,17.035
		c-9.967,20.831-4.139,44.881,10.7,58.991c10.342,9.833,19.94,20.313,27.464,32.51c3.729,6.045,7.578,12.068,10.678,18.439
		c5.442,11.184,10.438,22.588,15.451,33.975c3.762,8.545,5.36,17.53,4.605,26.885c0.872,0.996,1.744,1.991,2.617,2.986
		c0.458,0.523,0.916,1.046,1.375,1.568c0,0,0,0,0,0C833.629,649.035,839.122,650.309,844.496,651.972z"/>
	<path fill="#C93F1A" d="M678.938,1021.584c5.978-6.98,12.05-13.907,18.496-20.45c6.657-6.757,13.674-13.176,20.747-19.504
		c15.029-13.447,29.289-27.859,46.016-39.251c14.708-10.016,29.918-19.297,44.9-28.911c5.728-3.675,11.44-7.374,17.16-11.061
		c-0.07-1.041-0.139-2.082-0.212-3.123c-0.001,0-0.002,0-0.003-0.001c-0.866-0.216-1.936-0.18-2.559-0.69
		c-7.537-6.161-16.229-11.003-21.887-19.319c-6.006-8.829-13.893-15.541-23.904-19.295c-5.804-2.177-11.87-3.928-17.972-4.988
		c-19.868-3.452-39.628-2.773-59.206,2.408c-4.568,1.209-9.296,2.182-13.996,2.45c-10.741,0.614-21.189,2.707-31.638,5.053
		c-20.871,4.686-38.713,15.028-54.215,29.4c-25.927,24.038-36.143,54.42-34.508,89.136c0.275,5.845,1.692,11.823,3.641,17.368
		c6.391,18.185,18.677,30.786,37.166,36.877c9.703,3.196,19.687,4.237,29.906,3.293c10.167-0.939,19.854-3.584,29.234-7.505
		c2.827-1.398,5.655-2.795,8.482-4.193C676.012,1026.694,677.057,1023.781,678.938,1021.584z"/>
	<path fill="#C93F1A" d="M146.458,605.015c-0.599,1.181-1.199,2.363-1.799,3.545c-0.113,3.561-0.51,7.142-0.271,10.68
		c0.331,4.881-0.686,9.391-2.353,13.916c-9.671,26.248-8.586,52.653,0.526,78.595c8.519,24.255,26.651,37.11,52.108,39.636
		c12.975,1.287,25.383-1.273,37.572-5.706c14.22-5.172,26.33-13.644,37.79-23.195c19.94-16.618,35.705-36.443,45.977-60.43
		c7.105-16.591,8.865-33.831,5.84-51.519c-2.055-12.017-7.293-22.487-16.224-31.054c-10.508-10.08-23.143-15.467-37.391-17.154
		c-14.741-1.746-29.111,0.021-42.72,6.17c-5.4,2.44-10.604,5.352-15.754,8.299c-4.158,2.379-8.355,4.436-13.11,5.386
		c-9.157,1.829-17.491,5.625-25.202,10.883c-1.939,1.323-4.097,2.426-6.298,3.241c-1.249,0.462-2.504,0.91-3.762,1.348
		c-3.775,1.313-7.582,2.538-11.369,3.818c-0.603,0.581-1.206,1.161-1.809,1.742h0C147.625,603.816,147.041,604.415,146.458,605.015z
		"/>
	<path fill="#C93F1A" d="M484.28,629.095c11.521,32.064,28.629,60.628,53.201,84.494c11.684,11.349,25.607,18.195,41.684,20.537
		c15.082,2.197,28.195-1.873,39.122-12.724c6.965-6.916,11.21-15.299,13.679-24.637c2.135-8.074,3.168-16.327,3.192-26.51
		c-0.554-22.33-6.398-45.237-16.656-66.994c-10.287-21.819-25.783-39.824-42.848-56.541c-5.772-5.654-12.666-9.855-20.207-12.849
		c-12.994-5.159-26.115-5.477-39.139-0.285c-16.34,6.514-26.55,18.506-30.959,35.513c-1.638,6.317-3.365,12.613-5.208,18.873
		c-1.54,5.23-1.87,10.527-1.244,15.886C479.902,612.434,481.351,620.941,484.28,629.095z"/>
	<path fill="#C93F1A" d="M819.593,616.145c-5.013-11.387-10.009-22.791-15.451-33.975c-3.1-6.371-6.948-12.394-10.678-18.439
		c-7.524-12.197-17.122-22.677-27.464-32.51c-14.839-14.109-20.667-38.159-10.7-58.991c2.684-5.611,4.906-11.444,7.629-17.035
		c2.375-4.877,2.112-9.041-1.994-12.844c-1.952-1.808-3.798-3.764-5.469-5.833c-4.891-6.054-9.124-12.456-9.723-20.555
		c-0.658-0.096-1.316-0.193-1.973-0.288c-3.939,4.828-7.868,9.664-11.823,14.479c-4.141,5.041-8.18,10.175-12.487,15.071
		c-15.157,17.229-29.031,35.411-40.218,55.472c-13.151,23.583-18.616,48.704-13.615,75.612c2.573,13.841,6.774,27.098,14.715,38.913
		c11.428,17.003,29.591,24.619,49.515,20.12c7.192-1.624,14.092-4.598,21.058-7.141c4.742-1.731,9.373-3.766,14.041-5.696
		c7.932-3.28,15.532-3.018,23.046,1.492c7.896,4.74,15.932,9.26,24.041,13.628c0.487,0.262,0.978,0.515,1.473,0.761
		c3.467,1.721,7.128,3.083,10.681,4.643C824.953,633.675,823.355,624.69,819.593,616.145z"/>
	<path fill="#B75B32" d="M951.601,886.221c-5.142-2.944-10.199-6.081-15.53-8.642c-20.712-9.953-35.191-25.606-44.217-46.674
		c-6.084-14.2-11.044-28.759-15.49-43.523c-0.936-3.108-2.108-6.146-3.17-9.216c-1.211,1.846-2.619,3.603-3.754,5.483
		c-0.378,0.627-0.726,1.267-1.027,1.93c-4.045,8.92-7.903,17.929-11.675,26.969c-4.732,11.34-7.731,23.087-7.416,35.48
		c0.163,6.421-1.415,12.31-4.564,17.876c-6.282,11.103-12.483,22.251-18.715,33.381c0.073,1.041,0.142,2.082,0.212,3.123
		c15.124,15.262,22.591,33.784,23.4,55.108c0.146,3.848,0.067,7.708,0.008,11.561c-0.241,15.668-6.085,29.096-17.649,39.455
		c-19.883,17.812-42.984,26.99-70.154,23.955c-13.735-1.534-26.614-5.792-38.985-11.779c-3.203-1.55-6.425-3.068-9.58-4.712
		c-4.875-2.54-9.564-2.419-14.405,0.263c-4.019,2.227-8.068,4.401-12.126,6.558c-4.058,2.158-8.125,4.3-12.179,6.464
		c-2.828,1.396-5.656,2.793-8.483,4.191c-0.302,3.777-1.629,7.181-3.537,10.44c-0.395,0.675-0.773,1.359-1.141,2.049
		c-1.104,2.071-2.113,4.198-3.187,6.287c0,0,0,0,0,0c1.314,0.245,2.624,0.526,3.937,0.786c1.313,0.26,2.627,0.499,3.952,0.663
		c15.744,1.948,29.668,8.299,42.412,17.47c4.097,2.949,8.077,6.068,12.014,9.23c0.416,0.334,0.836,0.656,1.262,0.964
		c2.98,2.155,6.219,3.637,9.98,3.992c13.613-5.472,25.729-13.445,37.141-22.506c20.464-16.249,42.064-30.813,64.458-44.255
		c9.669-5.804,18.633-12.62,27.009-20.213c1.736-1.573,3.482-3.131,5.244-4.667c12.332-10.754,25.41-20.45,40.685-26.937
		c0.173-1.989,0.274-3.988,0.475-5.972c0.067-0.661,0.145-1.321,0.24-1.979c1.616-11.152,9.51-17.953,20.724-17.831
		c2.357,0.026,4.709,0.439,7.063,0.672c0,0,0,0,0,0c1.467-1.927,3.019-3.796,4.453-5.744c0.478-0.649,0.943-1.307,1.388-1.978
		c7.977-12.046,14.511-24.858,19.984-38.219C958.711,891.536,955.547,888.481,951.601,886.221z M907.673,904.712
		c-0.351,9.525-8.579,17.224-18.064,17.136c-7.996-0.074-17.39-8.012-16.763-18.277c0.59-9.674,7.726-16.661,17.329-16.474
		C899.781,887.284,908.01,895.569,907.673,904.712z"/>
	<path fill="#A12E0F" d="M954.663,714.05c-10.438-0.33-20.82,0.418-31.088,2.005c-6.11,0.944-12.262,2.546-17.99,4.857
		c-19.656,7.928-30.933,22.388-32.682,43.809c-0.036,0.444-0.081,0.887-0.128,1.33c-0.047,0.443-0.096,0.886-0.141,1.329l0,0
		c0.187,3.596,0.374,7.192,0.56,10.787c1.062,3.07,2.234,6.107,3.17,9.216c4.446,14.764,9.406,29.323,15.49,43.523
		c9.026,21.068,23.505,36.722,44.217,46.674c5.331,2.561,10.388,5.698,15.53,8.642c3.946,2.26,7.109,5.314,9.056,9.503
		c0.481-0.03,0.96-0.075,1.438-0.132c0-0.001,0-0.001,0-0.002c2.295-7.699-1.121-13.191-6.889-17.764
		c-3.716-2.946-7.516-5.793-11.153-8.833c-3.406-2.847-6.817-5.724-9.933-8.877c-12.119-12.257-14.506-26.65-8.829-42.599
		c3.225-9.061,8.374-16.991,14.985-23.954c3.673-3.868,7.315-7.793,11.268-11.363c6.803-6.142,11.134-13.726,14.192-22.234
		c3.909-10.876,8.069-21.662,11.984-32.537c0.688-1.911,1.329-3.839,1.957-5.772c1.109-3.412,2.164-6.843,3.269-10.255
		C973.688,714.103,964.185,714.351,954.663,714.05z"/>
	<path fill="#C93F1A" d="M252.614,883.382c15.907,0.034,28.63-12.212,28.872-27.792c0.257-16.506-12.685-29.493-29.222-29.322
		c-15.754,0.163-28.328,12.629-28.453,28.315C223.689,870.029,236.21,883.823,252.614,883.382z"/>
	<path fill="#C93F1A" d="M394.114,648.468c0.62,16.345,11.931,27.747,28.208,28.163c17.247,0.44,29.732-14.926,29.055-28.475
		c-0.055-16.193-12.628-28.48-28.821-28.872C410.16,618.983,393.435,630.563,394.114,648.468z"/>
	<path fill="#C93F1A" d="M372.886,501.494c12.782,0.469,29.326-10.232,28.887-28.52c0.139-16.494-11.944-28.684-28.463-28.713
		c-15.709-0.028-28.49,12.408-28.686,27.911C344.419,488.43,356.671,500.899,372.886,501.494z"/>
	<path fill="#C93F1A" d="M435.357,790.56c-3.335,10.699-0.354,19.936,7.955,27.276c7.759,6.855,19.031,8.153,28.263,3.151
		c10.116-5.48,15.325-14.423,16.713-24.257c0.942-18.112-14.925-31.471-31.161-27.531
		C445.717,771.968,438.752,779.666,435.357,790.56z"/>
	<path fill="#C93F1A" d="M332.633,813.306c13.902,0.008,25.432-11.645,25.382-25.654c-0.05-14.031-11.483-25.396-25.59-25.438
		c-13.907-0.041-25.339,11.545-25.301,25.644C307.161,801.976,318.51,813.297,332.633,813.306z"/>
	<path fill="#C93F1A" d="M549.192,1060.152c1.717-14.027-6.063-27.41-18.349-32.293c-16.502-6.558-33.362,3.645-35.006,21.24
		c-0.274,2.937-0.205,5.906-0.291,8.857c0.236,1.208,0.47,2.42,0.703,3.631c6.34-0.255,12.286,1.303,18.051,3.813
		c8.94,3.892,17.999,7.558,25.457,14.124c0.002,0,0.004,0,0.005,0c0.971-0.066,1.936-0.131,2.902-0.197
		c1.096-2.419,2.405-4.767,3.238-7.273C547.2,1068.147,548.697,1064.197,549.192,1060.152z"/>
	<path fill="#C93F1A" d="M820.774,766.998c-13.319,0.19-26.07,3.229-38.584,7.565c-3.575,1.238-7.272,2.124-10.911,3.17
		c-0.554,0.646-1.11,1.294-1.668,1.942l0,0c0.421,3.214,0.594,6.484,1.309,9.631c3.48,15.303,18.318,24.98,33.382,21.913
		c15.537-3.163,25.838-18.264,22.758-33.732c-0.085-0.428-0.185-0.852-0.297-1.275c-0.784-2.957-2.159-5.795-3.198-8.7
		C822.639,767.34,821.706,767.169,820.774,766.998z"/>
	<path fill="#C93F1A" d="M529.327,870.121c-10.589-0.178-19.87,8.859-20.083,19.556c-0.215,10.809,8.578,19.8,19.52,19.959
		c10.935,0.16,19.91-8.495,20.11-19.393C549.068,879.685,539.951,870.3,529.327,870.121z"/>
	<path fill="#C93F1A" d="M642.511,565.873c8.318,0.116,15.141-4.989,17.061-12.764c2.126-8.609-2.282-18.491-10.134-22.714
		c-9.171-4.932-20.925-1.055-24.811,8.18C619.773,550.113,628.635,566.234,642.511,565.873z"/>
	<path fill="#C93F1A" d="M682.412,728.046c10.062-0.037,17.218-7.451,17.095-17.71c-0.118-9.858-8.031-17.415-17.863-17.06
		c-9.025,0.326-16.851,8.42-16.932,17.512C664.623,720.473,672.428,728.082,682.412,728.046z"/>
	<path fill="#C93F1A" d="M261.717,466.957c-9.563-0.312-17.883,7.656-17.864,17.109c0.019,9.195,7.762,16.979,16.973,17.061
		c9.543,0.085,17.168-7.199,17.309-16.535C278.275,475.369,270.716,467.25,261.717,466.957z"/>
	<path fill="#C93F1A" d="M418.72,881.967c-6.853,0.006-15.778,6.256-15.262,16.331c0.453,8.839,6.642,14.99,15.444,14.948
		c8.908-0.042,16.031-7.09,15.864-15.699C434.596,888.73,427.381,881.725,418.72,881.967z"/>
	<path fill="#C93F1A" d="M712.613,333.27L712.613,333.27c-1.43-5.057-3.136-10.002-5.041-14.863
		c-3.176-8.103-6.907-15.979-10.837-23.772c-0.394-0.782-0.996-1.475-1.573-2.147c-1.276-1.485-3.69-1.376-4.526,0.323
		c-0.91,1.849-1.712,3.784-2.273,5.764c-1.701,5.998-3.236,12.043-4.895,18.053c-0.473,1.713-1.149,3.369-1.731,5.054
		c0.305,0.679,0.611,1.357,0.916,2.035c0.328,0.728,0.655,1.455,0.983,2.184c0,0.001,0.001,0.002,0.002,0.003
		c0.983,1.009,1.994,1.93,3.033,2.768c7.271,5.864,15.885,7.627,25.427,6.552C712.269,334.575,712.441,333.923,712.613,333.27z"/>
	<path fill="#A12E0F" d="M710.417,187.446c5.313,0.435,10.675,0.406,16.013,0.359c22.248-0.194,41.164,7.44,56.624,23.581
		c5.744,5.997,11.722,11.774,17.708,17.532c11.809,11.361,24.682,21.367,39.051,29.288c5.374,2.963,10.822,5.608,16.371,7.792
		c1.233,0.485,2.472,0.948,3.715,1.386c1.244,0.438,2.493,0.852,3.747,1.239c1.255,0.388,2.515,0.75,3.781,1.084
		c0.633,0.167,1.268,0.327,1.904,0.48c4.453,1.072,8.981,1.796,13.598,2.105c1.978,0.132,3.973,0.188,5.985,0.162
		c4.024-0.051,8.117-0.43,12.286-1.177l0,0c0.192-0.6,0.383-1.201,0.572-1.801c-2.609-16.697-5.286-33.384-7.781-50.097
		c-0.808-5.412-3.334-9.368-8.162-11.948c-6.537-3.494-13.008-7.111-19.539-10.616c-11.88-6.374-24.416-8.645-37.856-6.653
		c-21.817,3.233-41.035-3.019-58.13-16.622c-4.871-3.875-9.901-7.564-14.999-11.138c-8.118-5.691-17.067-9.422-26.849-11.319
		c-6.698-1.299-11.971,0.163-16.823,5.272c-6.93,7.295-14.527,13.954-21.782,20.944c-1.268,1.221-2.255,2.732-3.369,4.111
		C693.842,185.872,702.137,186.768,710.417,187.446z"/>
	<path fill="#A12E0F" d="M1012.441,437.527C1012.44,437.527,1012.44,437.527,1012.441,437.527c-0.759,1.094-1.488,2.214-2.234,3.32
		c-0.746,1.106-1.509,2.199-2.339,3.239c-6.409,8.039-10.63,17.042-12.942,27.081c-2.217,9.627-2.854,19.327-3.007,29.165
		c-0.261,16.722,4.715,31.587,14.888,44.742c6.721,8.691,13.504,17.342,20.505,25.808c1.788,2.162,3.583,4.349,5.562,6.349
		c1.979,2,4.141,3.814,6.663,5.232c0,0,0,0,0,0c1.736-3.56,2.733-7.269,3.33-11.05c0.075-0.473,0.143-0.946,0.206-1.421
		c0.125-0.949,0.229-1.903,0.315-2.858c0.215-2.389,0.323-4.795,0.407-7.198c0.87-24.884-3.058-48.995-12.137-72.227
		c-5.068-12.967-10.211-25.907-15.087-38.947c-0.166-0.444-0.319-0.894-0.461-1.347c-0.283-0.901-0.523-1.819-0.739-2.745
		c-0.546-2.334-0.941-4.725-1.488-7.062C1013.402,437.555,1012.923,437.531,1012.441,437.527z"/>
	<path fill="#601908" d="M982.935,285.322c11.176,0.386,23.548-11.443,23.379-23.417c-0.173-12.306-10.1-22.441-22.592-22.591
		c-13.038-1.187-23.987,11.312-23.602,22.407C960.583,275.05,969.875,284.871,982.935,285.322z"/>
	<path fill="#601908" d="M958.033,377.897c1.135-7.212,2.495-14.398,3.35-21.643c1.163-9.858,1.94-19.762,2.884-29.644
		c0.001,0.001-0.183,0.003-0.339,0.004c-0.112,0.001-0.21,0.002-0.21,0.002c-3.243-0.374-6.484-0.77-9.73-1.118
		c-5.155-0.553-10.084,0.433-14.751,2.55c-10.419,4.728-16.288,15.505-13.858,26.199c2.584,11.376,10.362,23.08,26.125,24.059
		c1.778,0.11,3.558,0.201,5.336,0.3C957.246,378.382,957.643,378.146,958.033,377.897z"/>
	<path fill="#A12E0F" d="M964.294,292.255l0.669-0.116c-0.301-0.309-0.602-0.618-0.902-0.927c-0.147,0.337-0.293,0.674-0.442,1.019
		c-0.001,0.002-0.001,0.004-0.002,0.005C963.615,292.244,964.294,292.255,964.294,292.255z"/>
	<path fill="none" stroke="#A12E0F" stroke-width="0" stroke-linecap="round" stroke-linejoin="round" d="M963.714,304.102
		c0.041,0.791,0.082,1.581,0.123,2.363"/>
	
		<line fill="none" stroke="#A12E0F" stroke-width="0" stroke-linecap="round" stroke-linejoin="round" x1="963.836" y1="306.465" x2="963.836" y2="306.466"/>
	<path fill="#601908" d="M305.267,250.214c-7.595,5.645-15.229,11.343-22.111,17.804c-4.916,4.615-8.891,10.322-12.804,15.88
		c-1.989,2.825-2.913,6.398-4.319,9.633c4.841-1.603,9.061-4.268,12.807-7.675c4.922-4.475,9.681-9.097,14.247-13.893
		c2.857-3.001,5.63-6.076,8.327-9.219c4.488-5.229,8.753-10.658,12.747-16.329C311.172,247.648,307.783,248.344,305.267,250.214z"/>
	
		<line fill="none" stroke="#B75B32" stroke-width="0" stroke-linecap="round" stroke-linejoin="round" x1="321.339" y1="239.25" x2="321.339" y2="239.249"/>
	<path fill="none" stroke="#B75B32" stroke-width="0" stroke-linecap="round" stroke-linejoin="round" d="M321.339,239.25
		c-0.545,0.549-1.09,1.097-1.635,1.645"/>
	<path fill="#A12E0F" d="M460.755,163.347c13.271,8.687,28.013,13.379,43.712,13.111c22.469-0.383,42.457-7.806,58.258-24.556
		c2.252-2.387,4.514-4.734,7.775-5.744c0.05-0.885,0.101-1.77,0.156-2.657c0,0-0.001-0.001-0.001-0.002
		c-2.02-3.239-4.523-6.274-5.978-9.748c-4-9.55-7.563-19.283-11.292-28.947c-0.958-2.483-1.778-5.028-2.874-7.449
		c-0.95-2.097-2.768-3.042-5.089-2.693c-1.164,0.175-2.34,0.443-3.436,0.863c-18.956,7.257-36.7,16.567-51.509,30.75
		c-4.918,4.71-9.613,9.653-14.539,14.355c-1.167,1.114-2.343,2.217-3.536,3.297c-5.171,4.682-10.663,8.946-17.121,11.88
		c-0.602,0.805-1.204,1.613-1.808,2.424c-0.001,0.001-0.002,0.002-0.002,0.003C455.895,159.946,458.274,161.723,460.755,163.347z"/>
	<path fill="#601908" d="M931.562,947.572c-5.796,7.441-12.435,13.859-21.086,17.946c-0.771,0.364-1.391,1.047-2.082,1.582
		c1.285,4.144,4.066,7.196,7.39,9.764c4.197,3.242,8.918,4.493,14.207,3.338c8.411-1.836,14.243-7.497,15.508-15.146
		c1.663-10.053-1.317-16.197-10.302-21.246C933.978,945.058,932.628,946.204,931.562,947.572z"/>
	<path fill="#A12E0F" d="M927.769,940.992c-11.214-0.123-19.108,6.679-20.724,17.831c-0.095,0.657-0.173,1.317-0.24,1.979
		c-0.2,1.985-0.301,3.984-0.474,5.973c0.688,0.109,1.375,0.216,2.063,0.324c0.69-0.535,1.311-1.217,2.082-1.582
		c8.651-4.087,15.29-10.504,21.086-17.946c1.065-1.368,2.416-2.514,3.635-3.762c-0.122-0.716-0.244-1.431-0.365-2.145
		C932.478,941.432,930.126,941.018,927.769,940.992z"/>
	<path fill="#A12E0F" d="M514.3,1065.401c-5.764-2.51-11.711-4.068-18.051-3.813c0.376,2.036,0.572,4.127,1.158,6.101
		c0.711,2.396,1.672,4.588,2.84,6.562c5.544,9.376,15.732,13.847,25.797,12.094c4.767-0.83,9.507-3.057,13.713-6.821
		C532.298,1072.959,523.24,1069.293,514.3,1065.401z"/>
	<path fill="#A12E0F" d="M597.531,196.842c-5.669-9.657-14.594-13.547-25.576-12.838c-10.691,0.69-19.82,4.452-24.683,14.7
		c-9.241,19.474,6.204,37.984,24.355,37.608c4.29-1.05,8.794-1.579,12.83-3.243C599.106,227.029,605.247,209.986,597.531,196.842z"
		/>
	<path fill="#A12E0F" d="M683.469,316.628c1.659-6.01,3.194-12.055,4.895-18.053c0.561-1.979,1.363-3.915,2.273-5.764
		c0.837-1.7,3.25-1.808,4.526-0.323c0.577,0.672,1.178,1.365,1.573,2.147c3.93,7.793,7.661,15.668,10.837,23.772
		c1.906,4.862,3.612,9.806,5.041,14.863c2.593-0.406,5.451-0.245,7.735-1.312c13.304-6.212,17.658-25.936,8.453-37.418
		c-7.886-9.837-24.162-15.051-36.277-11.275c-8.225,2.564-13.931,8.105-15.606,16.671c-0.19,0.97-0.346,1.939-0.463,2.903
		c-0.321,2.651-0.336,5.268,0.054,7.807c0.604,3.929,2.193,7.669,5.227,11.035C682.32,319.997,682.996,318.341,683.469,316.628z"/>
	<path fill="#A12E0F" d="M618.41,216.168c-11.745,0.038-19.018,7.725-18.866,19.941c0.144,11.6,8.157,19.277,19.893,19.059
		c10.485-0.195,19.011-8.987,18.958-19.548C638.34,224.684,629.553,216.133,618.41,216.168z"/>
	<path fill="#A12E0F" d="M864.14,289.536c-2.28-1.693-5.24-2.983-8.041-3.374c-12.112-1.69-22.592,9.818-20.295,21.952
		c1.5,7.925,9.306,14.478,17.049,14.313c7.474-0.159,14.22-5.306,16.608-12.672C871.896,302.244,869.903,293.815,864.14,289.536z"/>
	<path fill="#A12E0F" d="M985.271,610.302c-10.198,0.113-17.526,7.357-17.405,17.206c0.12,9.806,7.621,16.807,17.895,16.704
		c9.67-0.097,16.798-7.165,16.89-16.749C1002.746,617.534,995.309,610.191,985.271,610.302z"/>
	<path fill="#A12E0F" d="M771.83,239.539c-9.612-0.078-16.976,7.283-16.881,16.875c0.094,9.588,7.604,16.753,17.262,16.469
		c9.176-0.269,16.085-7.556,15.983-16.856C788.091,246.725,781.033,239.613,771.83,239.539z"/>
	<path fill="#A12E0F" d="M961.383,356.254c-0.855,7.245-2.215,14.431-3.35,21.643c2.846-0.635,5.848-0.889,8.512-1.973
		c10.138-4.126,16.287-11.467,16.64-22.716c0.356-11.35-4.454-19.838-14.867-24.853c-1.322-0.637-2.697-1.165-4.05-1.745
		C963.323,336.493,962.546,346.396,961.383,356.254z"/>
	<path fill="#A12E0F" d="M939.063,667.348c-9.662-0.388-16.139,8.895-15.887,15.779c0.326,8.874,7.11,15.72,15.997,15.77
		c8.555,0.048,15.682-7.281,15.588-16.029C954.661,673.402,948.403,667.216,939.063,667.348z"/>
	<path fill="#A12E0F" d="M782.19,774.562c12.514-4.336,25.265-7.375,38.584-7.565c-1.136-4.291-4.086-7.174-7.742-9.255
		c-8.533-4.859-17.399-5.489-26.222-0.913c-0.531,0.276-1.054,0.557-1.567,0.847c-1.394,0.785-2.715,1.63-3.959,2.535
		c-1.049,0.764-2.045,1.569-2.963,2.434c-4.013,3.783-6.669,8.607-7.043,15.086C774.918,776.686,778.615,775.8,782.19,774.562z"/>
	<path fill="#A12E0F" d="M764.196,942.38c-16.727,11.392-30.987,25.803-46.016,39.251c-7.073,6.328-14.09,12.747-20.747,19.504
		c-6.446,6.543-12.518,13.47-18.496,20.45c-1.881,2.197-2.926,5.11-4.352,7.697c4.054-2.164,8.121-4.306,12.179-6.464
		c4.058-2.158,8.107-4.331,12.126-6.558c4.84-2.682,9.53-2.804,14.405-0.263c3.155,1.644,6.376,3.162,9.58,4.712
		c12.371,5.987,25.25,10.245,38.985,11.779c27.17,3.035,50.271-6.143,70.154-23.955c11.564-10.359,17.408-23.787,17.649-39.455
		c0.059-3.853,0.139-7.713-0.008-11.561c-0.809-21.324-8.276-39.846-23.4-55.108c-5.719,3.688-11.432,7.386-17.16,11.061
		C794.114,923.083,778.904,932.364,764.196,942.38z"/>
	<path fill="#A12E0F" d="M890.175,887.097c-9.602-0.187-16.738,6.8-17.329,16.474c-0.627,10.266,8.767,18.203,16.763,18.277
		c9.485,0.088,17.713-7.611,18.064-17.136C908.01,895.569,899.781,887.284,890.175,887.097z"/>
</g>
</svg>
